<?xml version="1.0" encoding="utf-8"?>
<!-- Generator: Adobe Illustrator 22.0.1, SVG Export Plug-In . SVG Version: 6.00 Build 0)  -->
<svg version="1.1" xmlns="http://www.w3.org/2000/svg" xmlns:xlink="http://www.w3.org/1999/xlink" x="0px" y="0px"
	 viewBox="0 0 750 1334" style="enable-background:new 0 0 750 1334;" xml:space="preserve">
<style type="text/css">
	.st0{fill:#2B7A7B;}
	.st1{fill:#17252A;stroke:#DEF2F1;stroke-width:2;}
	.st2{fill:#17252A;}
	.st3{fill:#2B7A7B;stroke:#DEF2F1;stroke-width:2;}
	.st4{fill:#363A3A;}
	.st5{fill:#981F32;}
	.st6{fill:#DEF2F1;}
	.st7{fill:#2B7A7B;stroke:#FFFFFF;}
	.st8{fill:#3AAFA9;}
	.st9{fill:#FEFFFF;}
	.st10{fill:#4D4D4D;}
	.st11{fill:none;stroke:#000000;stroke-width:4;stroke-miterlimit:10;}
	.st12{fill:#2B7A7B;stroke:#2B7A7B;stroke-width:0.25;stroke-miterlimit:10;}
	.st13{fill:none;stroke:#2B7A7B;stroke-miterlimit:10;}
	.st14{fill:none;stroke:#000000;stroke-width:3;}
	.st15{fill:#2B7A7B;stroke:#000000;stroke-width:1.5;}
</style>
<g id="Layer_1">
	<g>
		<path class="st6" d="M311.9,698.9h-10.1v-16.7h-0.3c-6.5,12.8-16.8,19.3-31,19.4c-21.4-0.5-31.9-12.2-31.4-35.3v-60.2H250v60.4
			c0.2,8.3,2.2,14.6,5.9,18.9c3.5,4.4,9.6,6.7,18.1,6.7c9.4-0.1,16.3-4,20.8-11.7c4.2-7.3,6.3-15.8,6.3-25.6v-48.8h10.9V698.9z"/>
		<path class="st6" d="M344.1,606.1h18.4v9.5h-18.4v62.6c-0.1,3.6,0.4,6.5,1.5,8.5c1.2,2.2,3.6,3.4,7.3,3.8c3.1,0,6.3-0.2,9.5-0.5
			v9.6c-3.3,0-6.5,0.1-9.8,0.4c-7.2,0-12.2-1.5-15.1-4.5c-3-3.1-4.4-8.5-4.3-16.3v-63.5h-15.7v-9.5h15.7v-27.8h10.9V606.1z"/>
		<path class="st8" d="M447,698.9h-80.2c0.5-9.4,2.8-17.2,7-23.5c4-6.4,9.1-11.9,15.1-16.6c6-4.8,12.3-9.3,18.9-13.6
			c6.6-4.4,12.5-9.2,17.6-14.2c3.3-3.5,5.9-7.1,7.6-10.8c1.6-3.7,2.5-8,2.5-12.9c-0.1-8.4-2.8-14.8-8.1-19.1
			c-5.2-4.4-11.7-6.7-19.3-6.7c-9.9,0.2-17,3.7-21.3,10.5c-4.4,6.7-6.5,14.9-6.2,24.6h-10.9c-0.3-13.1,2.9-23.8,9.5-31.9
			c6.4-8.3,16.2-12.5,29.4-12.6c10.9,0,19.9,3,27,8.9c7.1,6,10.7,14.8,10.8,26.6c-0.1,10.3-3.2,19-9.3,26.1
			c-6,7.1-13.1,13.4-21.4,18.7c-3,1.9-6.4,4.1-10.1,6.6c-3.8,2.5-7.6,5.3-11.3,8.3c-3.7,2.9-6.9,6-9.5,9.5
			c-2.8,3.6-4.6,7.6-5.6,11.9H447V698.9z"/>
		<path class="st8" d="M464.1,570.6h43c37.8,0.8,56.8,22.2,57.1,64.1c-0.2,41.9-19.2,63.3-57.1,64.1h-43V570.6z M475.8,688.5h25.3
			c34.5,1.3,51.6-16.6,51.2-53.8c0.4-37.2-16.7-55.1-51.2-53.8h-25.3V688.5z"/>
		<path class="st6" d="M613.9,603.5c13.8,0.2,24.4,5,31.7,14.3c7.2,9.4,10.8,20.9,10.8,34.7c0,13.6-3.6,25.1-10.8,34.3
			c-7.3,9.6-17.9,14.5-31.7,14.7c-13.8-0.2-24.3-5.1-31.5-14.7c-7.3-9.2-11-20.7-11-34.3c0-13.8,3.7-25.4,11-34.7
			C589.7,608.5,600.2,603.8,613.9,603.5z M613.9,613c-10.5,0.2-18.3,4.3-23.5,12.2c-5.3,8-8,17.1-8,27.4c0,10.3,2.7,19.4,8,27.1
			c5.2,8,13.1,12.2,23.5,12.4c10.6-0.2,18.6-4.4,23.8-12.4c5.2-7.8,7.8-16.8,7.8-27.1c0-10.3-2.6-19.4-7.8-27.4
			C632.5,617.3,624.6,613.2,613.9,613z"/>
		<path class="st0" d="M673.5,698.9v-18.9H688v18.9H673.5z"/>
		<path class="st8" d="M149.4,683c-0.4-8.8-6.6-14-13.1-15.6c-7.9-2-17.6-2.7-22.6,10c-5.9-16.9-0.4-33.5-5.8-47.5
			C100.7,611.6,98.2,592,93,572l16.1,43.4c5.9,2.3,7.1,8.8,7.6,12.9c1.9,15.2,14.1,13.6,23,13.9c9.6,0.3,12.3-8,13.1-17.1
			c0.8-8.6,3.5-17.1,5.1-24.5c-3.4-8.1-8-2.2-13.8-3.3c5.8-19.4,11.5-38.6,17.2-57.8c0.1,0,0.1,0,0.2,0c0.1-0.2,0.1-0.3,0.2-0.5
			c0.5,0.1,0.9,0.2,1.4,0.2c0.5-0.1,0.9-0.2,1.4-0.2c0.1,0.2,0.1,0.3,0.2,0.5c0.1,0,0.1,0,0.2,0c5.7,19.2,11.4,38.4,17.2,57.8
			c-5.8,1.1-10.5-4.8-13.8,3.3c1.6,7.4,4.3,15.8,5.1,24.5c0.8,9.1,3.5,17.5,13.1,17.1c8.9-0.3,21.1,1.3,23-13.9
			c0.5-4.1,1.7-10.6,7.6-12.9L233,572c-5.2,20.1-7.7,39.6-14.9,57.9c-5.5,14,0.1,30.6-5.8,47.5c-5-12.7-14.7-12-22.6-10
			c-6.5,1.6-12.7,6.8-13.1,15.6c0,0-4.9,20.3-11.2,37L149.4,683z"/>
	</g>
</g>
<g id="Layer_2">
</g>
<g id="Layer_3">
</g>
</svg>
