<?xml version="1.0" encoding="utf-8"?>
<!-- Generator: Adobe Illustrator 22.0.1, SVG Export Plug-In . SVG Version: 6.00 Build 0)  -->
<svg version="1.1" xmlns="http://www.w3.org/2000/svg" xmlns:xlink="http://www.w3.org/1999/xlink" x="0px" y="0px"
	 viewBox="0 0 750 1334" style="enable-background:new 0 0 750 1334;" xml:space="preserve">
<style type="text/css">
	.st0{fill:#2B7A7B;}
	.st1{fill:#17252A;stroke:#DEF2F1;stroke-width:2;}
	.st2{fill:#17252A;}
	.st3{fill:#2B7A7B;stroke:#DEF2F1;stroke-width:2;}
	.st4{fill:#363A3A;}
	.st5{fill:#981F32;}
	.st6{fill:#DEF2F1;}
	.st7{fill:#2B7A7B;stroke:#FFFFFF;}
	.st8{fill:#3AAFA9;}
	.st9{fill:#FEFFFF;}
	.st10{fill:#4D4D4D;}
	.st11{fill:none;stroke:#000000;stroke-width:4;stroke-miterlimit:10;}
	.st12{fill:#2B7A7B;stroke:#000000;stroke-width:3;stroke-miterlimit:10;}
	.st13{fill:#2B7A7B;stroke:#2B7A7B;stroke-width:0.25;stroke-miterlimit:10;}
	.st14{fill:none;stroke:#2B7A7B;stroke-miterlimit:10;}
	.st15{fill:none;stroke:#000000;stroke-width:3;}
	.st16{fill:#2B7A7B;stroke:#000000;stroke-width:1.5;}
</style>
<g id="Layer_1">
	<circle class="st12" cx="387" cy="343" r="156"/>
	<g>
		<g>
			<path class="st0" d="M404.3,391.3c-12.4-11.6-27.3-18.5-42.8-25.1l-11.3-4.8h93.6l-38,31.3L404.3,391.3z"/>
			<path d="M437,364c-10.2,8.4-20.5,16.9-30.9,25.5C393.7,378,378.9,371,362.5,364C388.4,364,412.8,364,437,364 M450.9,359H437
				h-74.4H338l22.5,9.6c15.3,6.5,29.9,13.3,42.1,24.6l3.2,3l3.4-2.8l30.9-25.5L450.9,359L450.9,359z"/>
		</g>
		<g>
			<path class="st0" d="M469.9,356c-0.5,0-1,0-1.4-0.1c-0.4,0-0.7-0.1-1-0.1l-167.8,0c-0.3,0-0.5,0-0.8,0c-0.4,0-0.8,0.1-1.2,0.1
				c-1.1,0-2-0.2-2.7-0.7c-1.4-0.9-2.4-2.1-3.5-3.1c-0.4-0.4-0.8-0.8-1.1-1.2l-1.9-1.9l2.1-1.8c0.4-0.4,0.8-0.7,1.2-1.1
				c1.1-1,2.3-2.1,3.6-2.9c0.7-0.4,1.5-0.6,2.5-0.6c0.4,0,0.8,0,1.3,0.1c0.3,0,0.5,0.1,0.8,0.1l84.4,0c19.6,0,39.3,0,58.9,0l23.6,0
				c0.4,0,0.8,0,1.2-0.1c0.5,0,1.1-0.1,1.6-0.1c1.2,0,2.1,0.2,3,0.6c0.5,0.3,5.1,2.6,5.2,5.9c0.1,3-3.7,5.5-4.8,6.2
				C471.8,355.9,470.7,356,469.9,356z"/>
			<path d="M469.6,345.1c0.7,0,1.3,0.1,1.9,0.3c1.6,0.8,3.7,2.4,3.8,3.8c0,1.3-2,3-3.6,3.9c-0.5,0.3-1.1,0.4-1.7,0.4
				c-0.8,0-1.7-0.1-2.5-0.1c0,0,0,0,0,0l-167.8,0c0,0,0,0,0,0c-0.6,0-1.4,0.1-2,0.1c-0.5,0-0.9-0.1-1.3-0.3c-1.6-1.1-2.9-2.7-4.3-4
				c1.5-1.3,2.9-2.8,4.6-3.8c0.3-0.2,0.8-0.3,1.2-0.3c0.7,0,1.4,0.1,2.1,0.1c0,0,0,0,0,0c19.1,0,38.1,0,57.2,0c9.1,0,18.1,0,27.2,0
				c27.5,0,55,0,82.5,0c0,0,0,0,0,0C467.7,345.2,468.7,345.1,469.6,345.1 M469.6,340.1c-0.7,0-1.3,0-1.8,0.1c-0.4,0-0.8,0.1-1,0.1
				l-23.4,0c-19.7,0-39.4,0-59.1,0l-13.6,0l-13.6,0c-19.1,0-38.1,0-57.2,0c-0.1,0-0.4,0-0.6,0c-0.4,0-0.9-0.1-1.5-0.1
				c-1.5,0-2.7,0.3-3.8,1c-1.6,1-2.9,2.2-4,3.2c-0.4,0.4-0.8,0.7-1.2,1.1l-4.1,3.6l3.9,3.8c0.4,0.4,0.7,0.7,1.1,1.1
				c1.1,1.1,2.3,2.4,3.9,3.5c1.1,0.8,2.5,1.2,4.1,1.2c0.5,0,1,0,1.4-0.1c0.2,0,0.5,0,0.6,0l167.8,0c0.2,0,0.5,0,0.9,0
				c0.5,0,1,0.1,1.6,0.1c1.7,0,3.1-0.3,4.3-1.1c1.9-1.1,6.2-4.1,6-8.4c-0.1-4.7-5.5-7.6-6.5-8.1
				C472.5,340.3,471.2,340.1,469.6,340.1L469.6,340.1z"/>
		</g>
		<g>
			<path class="st0" d="M452.4,384.8c-3.4,0-6.8,0-10.4,0c-3.7,0-7.5,0-11.4,0h-7l5.5-4.4c11.5-9.3,21.3-15.1,31.7-18.5
				c1.2-0.4,2.6-0.6,4.1-0.6c2.4,0,5.1,0.5,7.6,1.5c5,1.9,7.4,6.8,6.2,12.7c-1.1,5.6-5.2,9.2-10.6,9.3
				C463.5,384.8,458.6,384.8,452.4,384.8C452.4,384.8,452.4,384.8,452.4,384.8z"/>
			<path d="M464.9,363.6c2.3,0,4.7,0.5,6.7,1.3c4.1,1.6,5.5,5.6,4.7,9.9c-0.9,4.4-3.8,7.2-8.2,7.3c-5.2,0.1-10.4,0.1-15.7,0.1
				c-7,0-14.1-0.1-21.8-0.1c10.2-8.3,19.9-14.4,30.9-18.1C462.5,363.8,463.7,363.6,464.9,363.6 M464.9,358.6c-1.8,0-3.5,0.3-4.9,0.7
				c-10.7,3.6-20.8,9.4-32.5,19l-10.9,8.9h14.1c3.9,0,7.7,0,11.4,0c3.5,0,7,0,10.4,0c6.3,0,11.1,0,15.8-0.1
				c6.6-0.1,11.7-4.6,13-11.4c1.4-7.1-1.7-13.2-7.8-15.5C470.6,359.2,467.6,358.6,464.9,358.6L464.9,358.6z"/>
		</g>
		<g>
			<path class="st0" d="M312.6,384.9c-4.4,0-8.1,0-11.4-0.1c-7.5-0.1-12.4-4.6-12.6-11.5c-0.2-6.8,4.5-11.5,12.2-12.3
				c3.4-0.4,6.9-0.6,10.4-0.6c24.2,0,46.1,9.1,64.4,17.9c0.6,0.3,0.9,0.6,1.5,1.1c0.3,0.2,0.6,0.6,1.1,1l5.1,4.4l-54.9,0
				c-2.7,0-5.3,0-7.9,0C317.9,384.9,315.2,384.9,312.6,384.9z"/>
			<path d="M311.2,363c22.5,0,43.1,7.9,63.3,17.7c0.4,0.2,0.7,0.6,2,1.7c-10,0-19.6,0-29,0c-6.4,0-12.8,0-19.1,0c0,0-0.1,0-0.1,0
				c-5.2,0-10.4,0-15.6,0c-3.8,0-7.6,0-11.4-0.1c-6.2-0.1-10-3.6-10.1-9c-0.1-5.6,3.9-9.1,10-9.8C304.5,363.1,307.9,363,311.2,363
				 M311.2,358c-3.6,0-7.1,0.2-10.7,0.6c-9,1-14.7,6.8-14.5,14.8c0.2,8.2,6.2,13.8,15.1,13.9c3.4,0,7,0.1,11.4,0.1
				c2.6,0,5.2,0,7.8,0c2.6,0,5.2,0,7.8,0h0.1l19.1,0l14.1,0l15,0H390l-10.2-8.8c-0.5-0.4-0.8-0.7-1-0.9c-0.6-0.5-1.2-1.1-2-1.5
				C358.2,367.2,335.9,358,311.2,358L311.2,358z"/>
		</g>
		<g>
			<path class="st0" d="M441.9,337.5c-6.1,0-12.1,0-18.2,0s-12.1,0-18.2,0l-70.6,0c-11.4,0-22.8,0-34.1,0c-7.9,0-14.1-2.5-17.9-7.2
				c-3.8-4.8-4.9-11.4-3.2-19.2c2.8-12.8,10.7-23.1,24.6-32.7c15.3-10.4,33-16.9,54.3-19.8c9-1.2,17.9-1.8,26.3-1.8
				c21.5,0,41.9,4,60.6,12c12.9,5.5,22.9,12.3,30.6,20.8c7.7,8.5,11.7,17.1,12.2,26.5c0.4,6.4-1.4,11.7-4.9,15.5
				c-3.6,3.8-8.9,5.8-15.2,5.9C459.5,337.5,450.7,337.5,441.9,337.5z M427.3,295.9c-0.1,0-0.3,0-0.4,0c-0.8,0.1-2.4,1.7-2.6,2.4
				c0,0.4,1,1.6,1.6,2.4c0.2,0.2,0.4,0.4,0.5,0.7c0.2-0.2,0.3-0.4,0.5-0.6c0.9-1.1,1.8-2.1,1.9-3c0.1-0.6,0-1.1-0.3-1.4
				C428.3,296.1,427.8,295.9,427.3,295.9z M338.9,298.4c0.2,0.6,1.4,1.8,2.1,2.1c0.7-0.3,1.9-1.4,2.2-2.1c-0.1-0.5-1-1.7-1.6-2.4
				c-0.2-0.2-0.3-0.4-0.5-0.6c-0.2,0.2-0.3,0.4-0.5,0.6C340,296.7,339,297.8,338.9,298.4z M381.4,284.7c1,0.8,2.1,1.7,2.9,1.8
				c0.1,0,0.3,0,0.4,0c0.5,0,0.9-0.2,1.2-0.5c0.3-0.4,0.4-0.9,0.3-1.4c-0.2-0.9-1.7-2.4-2.4-2.6c-0.5,0.1-1.6,1-2.3,1.6
				c-0.2,0.2-0.5,0.4-0.7,0.6C380.9,284.4,381.1,284.5,381.4,284.7z"/>
			<path d="M385,259.2c20.3,0,40.2,3.5,59.6,11.8c11.2,4.8,21.5,11.1,29.8,20.2c6.5,7.1,11,15.2,11.6,25
				c0.6,11.5-6.1,18.7-17.7,18.8c-8.8,0-17.5,0-26.3,0c-12.1,0-24.2,0-36.3,0c-0.1,0-0.2,0-0.4,0c-2.4,0-4.8,0-7.2,0
				c-4.8,0-9.5,0-14.3,0c-0.3,0-0.6,0-0.9,0c-15.9,0-31.8,0-47.7,0c-11.5,0-23,0-34.5,0c-14.6,0-21.8-9.1-18.6-23.4
				c3.1-13.9,12.3-23.4,23.6-31.1c16.1-11,34.1-16.8,53.2-19.4C367.7,259.9,376.4,259.2,385,259.2 M384.6,289.1c2.7,0,4.5-2.3,3.9-5
				c-0.4-1.9-2.9-4.4-4.7-4.6c0,0-0.1,0-0.1,0c-1.8,0-3.8,2.3-5.7,3.5c0,0.8,0,1.6,0,2.3c1.9,1.3,3.8,3.4,5.9,3.7
				C384.1,289.1,384.4,289.1,384.6,289.1 M341,303c1.7,0,4.6-2.7,4.7-4.4c0.1-1.9-2.2-4-3.5-6c-0.7,0-1.4,0-2.1,0
				c-1.3,2-3.8,4-3.7,6C336.4,300.2,339.3,303,341,303C341,303,341,303,341,303 M427.5,304.2c1.3-2,3.4-3.8,3.8-5.9
				c0.5-2.8-1.5-4.9-4-4.9c-0.3,0-0.6,0-0.9,0.1c-1.9,0.4-4.5,3-4.6,4.7c-0.1,1.9,2.3,4,3.5,6C426.1,304.1,426.8,304.2,427.5,304.2
				 M385,254.2c-8.6,0-17.5,0.6-26.6,1.9c-21.7,2.9-39.8,9.5-55.4,20.2c-14.5,9.9-22.6,20.8-25.6,34.2c-2.4,10.9,0.6,17.6,3.6,21.3
				c3,3.7,8.8,8.2,19.8,8.2c11.5,0,23,0,34.5,0l23.8,0l23.8,0h0.9l7.2,0l7.2,0l7.2,0h0.4c6.1,0,12.1,0,18.2,0c6.1,0,12.1,0,18.2,0
				c10.2,0,18.6,0,26.3,0c7.1,0,13-2.3,17.1-6.6c4.1-4.3,6-10.3,5.6-17.4c-0.6-10-4.8-19.2-12.9-28.1c-8-8.8-18.3-15.8-31.5-21.4
				C427.6,258.3,406.9,254.2,385,254.2L385,254.2z"/>
		</g>
		<g>
			<path class="st0" d="M335.5,416.9c-13.2,0-26.3,0-39.5,0c-5.4,0-9.6-1.5-12.6-4.6c-3-3-4.5-7.3-4.4-12.8c0.1-5.3,2.9-8.5,8.2-9
				c3.4-0.4,6.2-0.6,8.8-0.6l7.3,0c6.7,0,13.3,0,20,0c6.7,0,13.3,0,20,0c11.7,0,27.1,0,42.8-0.2l0.4,0c6.9,0,11.9,2.3,16.3,7.5
				c2.3,2.7,3.3,3.3,3.8,3.3c0.4,0,1.4-0.4,3.6-3.2c4.3-5.3,9.4-7.6,16.5-7.6c0.4,0,0.8,0,1.2,0c5.4,0.2,11.2,0.3,18.3,0.3
				c4.2,0,8.4,0,12.6-0.1l0.4,0c3,0,6.1,0,9.1,0l4.5,0c1,0,2.1,0,3.3,0.1c7.9,0.5,12.3,2.2,12.4,9.6c0.2,8.9-5,16.1-12.5,17
				c-1.8,0.2-3.6,0.3-5.5,0.3L335.5,416.9z"/>
			<path d="M386.5,392.3c6.2,0,10.5,2.1,14.4,6.6c2.3,2.7,4,4.2,5.7,4.2c1.7,0,3.3-1.3,5.6-4.1c4-4.9,8.5-6.7,14.5-6.7
				c0.4,0,0.7,0,1.1,0c6.1,0.2,12.3,0.3,18.4,0.3c4.3,0,8.7,0,13-0.1c3,0,6,0,9.1,0c1,0,2,0,3,0c0.1,0,0.2,0,0.3,0c0,0,0,0,0.1,0
				c0.4,0,0.7,0,1.1,0c1.1,0,2.1,0,3.2,0.1c7.9,0.5,10,2,10.1,7.2c0.2,7.6-4.1,13.7-10.3,14.5c-1.7,0.2-3.4,0.2-5.1,0.2
				c-0.3,0-0.6,0-0.9,0c0,0-0.1,0-0.1,0c-0.4,0-0.8,0-1.3,0c-3,0-6,0-9.1,0c-13.9,0-27.9,0-41.8,0c-11.4,0-22.7,0-34.1,0
				c-1.8,0-3.7,0-5.5,0c-14.1,0-28.2,0-42.3,0c-13.1,0-26.3,0-39.4,0c-9.6,0-14.6-5.4-14.5-14.8c0.1-4.2,2.1-6.2,5.9-6.6
				c2.8-0.3,5.7-0.5,8.5-0.6c2.4,0,4.9,0,7.3,0c13.3,0,26.6,0,39.9,0c14.3,0,28.6,0,42.8-0.2C386.2,392.3,386.3,392.3,386.5,392.3
				 M386.5,387.3L386.5,387.3c-0.1,0-0.3,0-0.4,0c-15.7,0.2-31.1,0.2-42.8,0.2c-6.6,0-13.3,0-19.9,0c-6.7,0-13.3,0-20,0
				c-2.4,0-4.9,0-7.3,0c-2.7,0-5.6,0.2-9.1,0.6c-6.5,0.7-10.3,4.9-10.4,11.5c-0.1,6,1.7,11.1,5.1,14.5c3.5,3.5,8.3,5.3,14.4,5.3
				c13.1,0,26.3,0,39.4,0l21.1,0l21.1,0l5.5,0l17,0l17,0c13.9,0,27.9,0,41.8,0l9.1,0l1.3,0l0.1,0h0.1l0.5,0l0.5,0
				c1.9,0,3.8,0,5.8-0.3c8.7-1.1,14.9-9.3,14.7-19.5c-0.2-10.2-7.7-11.6-14.8-12.1c-1.2-0.1-2.4-0.1-3.5-0.1l-0.5,0l-0.5,0h-0.1
				l-0.3,0c-1,0-2,0-3.1,0c-3,0-6.1,0-9.1,0l-0.5,0c-4.1,0-8.3,0.1-12.5,0.1c-7.1,0-12.9-0.1-18.3-0.3c-0.4,0-0.8,0-1.3,0
				c-7.8,0-13.7,2.7-18.4,8.5c-0.8,1-1.3,1.5-1.7,1.9c-0.4-0.4-1-1-1.9-2C399.8,390,394,387.3,386.5,387.3L386.5,387.3z"/>
		</g>
	</g>
</g>
<g id="Layer_2">
</g>
<g id="Layer_3">
</g>
</svg>
