<?xml version="1.0" encoding="utf-8"?>
<!-- Generator: Adobe Illustrator 22.0.1, SVG Export Plug-In . SVG Version: 6.00 Build 0)  -->
<svg version="1.1" xmlns="http://www.w3.org/2000/svg" xmlns:xlink="http://www.w3.org/1999/xlink" x="0px" y="0px"
	 viewBox="0 0 750 1334" style="enable-background:new 0 0 750 1334;" xml:space="preserve">
<style type="text/css">
	.st0{fill:#2B7A7B;}
	.st1{fill:#17252A;stroke:#DEF2F1;stroke-width:2;}
	.st2{fill:#17252A;}
	.st3{fill:#2B7A7B;stroke:#DEF2F1;stroke-width:2;}
	.st4{fill:#363A3A;}
	.st5{fill:#981F32;}
	.st6{fill:#DEF2F1;}
	.st7{fill:#2B7A7B;stroke:#FFFFFF;}
	.st8{fill:#3AAFA9;}
	.st9{fill:#FEFFFF;}
	.st10{fill:#4D4D4D;}
	.st11{fill:#2B7A7B;stroke:#000000;stroke-width:1.5;}
</style>
<g id="Layer_1">
	<g>
		<path class="st11" d="M189,495.3c0,0.1,0,0.1,0,0.2c0,0.1,0,0.1,0,0.2C189,495.6,189,495.4,189,495.3z"/>
		<path class="st11" d="M565,485c0,6,0,12,0,18c0,4,0,8,0,12c0.7-6.4,1-12.9,1-19.5s-0.3-13.1-1-19.5c0,0.3,0,0.7,0,1
			C565,479.7,565,482.3,565,485z"/>
		<path class="st11" d="M201,488.7c2.4,1.1,4.8,2.3,7.6,3.7c-2.9,10-5.7,19.9-8.7,29.7c-0.3,0.8-1.9,1.7-3,1.7
			c-1.8,0.1-3.7-0.1-5.8-0.3c0.4,2.7,0.9,5.4,1.4,8.1c1.4,0.3,2.8,0.5,4.3,0.8c-0.3,1.3-0.5,2.5-0.9,3.5c-0.6,1.4-1.1,2.9-1.5,4.3
			c1.3,5.2,2.7,10.3,4.4,15.3c5.8-20,11.5-39.6,17.3-59.5c5.5,2.6,10.6,4.9,15.6,7.6c1,0.5,2.1,2.6,1.8,3.7
			c-4,17.1-8.1,34.2-12.3,51.3c-0.1,0.4-0.4,0.8-0.9,1.7c-6.6-0.7-13.4-1.4-20.6-2.1c0.5,1.5,1.1,2.9,1.6,4.4
			c15.4,1.6,30.6,3.2,46.1,4.9c-0.6,3.4-1.1,6.3-1.5,9c-12.9,0-25.7,0-38.7,0c2.2,4.7,4.6,9.2,7.2,13.7c10.4,0.3,20.7,0.6,31,0.9
			c0.8,4.6,1.5,8.8,2.4,13.8c-7.5,0.6-15,1.3-22.5,1.9c1,1.3,1.9,2.6,2.9,3.9c6.7-0.6,13.4-1.2,20.2-1.7c1.2,7,2.2,13.2,3.3,20.2
			c-2.2,0.2-4.3,0.5-6.5,0.7c5.5,5.4,11.4,10.5,17.6,15.3c-0.6-3.6-1.2-7.1-1.8-10.7c-0.8-4.7-1.5-9.4-2.4-14.9
			c19.2,1.5,37.7,2.9,56.5,4.3c-4.7,14.9-10.4,29.1-16.8,42.8c2.5,1.2,5,2.3,7.6,3.3c1.5-3.2,3-6.5,4.6-9.8
			c8.7,3.3,17.2,6.6,26.2,10c-1.2,3-2.4,5.8-3.5,8.6c1.4,0.3,2.8,0.7,4.2,1c3.5-9.2,7.1-18.3,10.8-27.8c8,1.9,15.8,3.7,24.1,5.7
			c-3.2,8.9-6.2,17.4-9.2,25.9c2.9,0.2,5.9,0.4,8.8,0.5c4.2-11.8,8.3-23.6,12.5-35.4c1.1-3.1,2.3-6.2,3.4-9.4
			c3.2-8.9,3.2-8.9,13.6-8.8c-0.9,8.2-1.7,16.4-2.7,24.6c-1.1,9.4-2.3,18.8-3.5,28.3c1.7-0.2,3.3-0.3,4.9-0.5
			c0.5-5.4,1-10.9,1.7-16.3c0.1-1,1.3-2.2,2.3-2.5c5-1.6,10.1-2.9,15.7-4.4c2.2,6.2,4.4,12.2,6.5,18.2c1.3-0.3,2.6-0.7,3.9-1.1
			c-2-6-4-12-6.1-18.2c3.8-1.1,7.5-2.1,11.8-3.3c2.8,5.6,5.6,11.2,8.4,16.8c4.3-1.6,8.4-3.4,12.5-5.3c-1.9-3.7-3.6-7.3-5.5-11.1
			c7.8-2.3,15.2-4.4,23-6.7c0.7,2.5,1.3,4.9,1.9,7.3c1.3-0.8,2.5-1.6,3.8-2.4c-0.5-1.9-1-3.9-1.6-6c5.5-1.6,11-3.2,16.4-4.7
			c5-4,9.7-8.2,14.3-12.6c-20.3,5.9-40.7,11.7-61.4,17.5c-3.2-6.6-6.5-12.9-9.5-19.3c-0.5-1.2-0.5-3,0.1-4.2
			c2.9-6.1,6-12.2,9.3-18.2c0.6-1.1,2.6-2.3,3.8-2.1c22.4,3,44.7,6.3,67.6,9.5c-0.4,2.6-0.7,5-1,7.4c3.5-3.9,6.8-8,10-12.2
			c0.5-3.3,0.9-6.6,1.4-10.1c1.7,0.3,3.4,0.5,5.2,0.8c1.7-2.5,3.3-5.1,4.8-7.7c-2.9-0.5-5.8-1-8.7-1.5c1.4-9.9,2.7-19.6,4.2-29.8
			c6.1,1.1,12.2,2.2,18.2,3.3c0.5-1.3,1-2.6,1.5-3.9c-6.1-1.2-12.3-2.4-18.9-3.7c1.1-8.1,2.3-16.1,3.4-24.4c7.7,1.5,15,3,22.3,4.4
			c1.5-7,2.7-14.1,3.4-21.3c0-4,0-8,0-12c-2.2,7.9-4.4,15.9-6.8,24.3c-5.8-1.2-11.6-2.3-17.9-3.6c2-13.9,3.9-27.5,5.9-41.4
			c6.5,0.9,12.6,1.8,18.8,2.7c0-2.7,0-5.3,0-8c-9.3-1.6-18.5-3.3-28.1-5c1.5-9,3-17.5,4.5-26.3c6.6,1.5,12.9,2.9,19.1,4.3
			c-0.4-1.5-0.7-2.9-1.1-4.4c-5.6-1.4-11.4-2.8-17.3-4.2c1.6-9.7,3.2-19.2,4.8-28.7c-1-2.1-2.1-4.3-3.3-6.4
			c-3.6,21.3-7.2,42.9-10.9,64.7c-10.1-1.9-19.7-3.8-29.7-5.7c0.5-1.3,0.7-2.4,1.2-3.3c10.8-20.8,21.7-41.6,32.3-62.5
			c0.5-1,1.1-1.9,1.6-2.6c-3.9-6.3-8.1-12.3-12.6-18.1c-6.3-1.2-12.8-2.3-19.3-3.5c3.7-2.2,7.3-4.4,10.9-6.5
			c-1.9-2.1-3.8-4.1-5.8-6.1c-3.2,1.8-6.4,3.5-9.2,5.8c-6.6,5.3-13.3,4.7-20.9,1.9c2.8-8.8,5.6-17.6,8.5-26.5
			c-3.8-2.8-7.7-5.5-11.7-8c-0.5,1.5-1,3-1.4,4.5c-11-4.3-21.6-8.5-32.6-12.9c1-2.5,2-5,3-7.4c-2.5-1-5.1-2-7.7-2.9
			c-2.2,5.5-4.4,11.1-6.7,16.8c-5.1-4.3-10-8.5-15.3-12.9c2-2.9,4.1-5.8,6.1-8.6c-1.5-0.4-2.9-0.7-4.4-1c-1.6,2.3-3.2,4.6-4.9,6.9
			c-3.9-3.3-7.7-6.5-11.6-9.8c-2.5-0.3-5-0.6-7.6-0.8c11.7,9.8,23.3,19.7,34.8,29.6c0.4,0.4,0.5,1.1,1.1,2.4c-3,0.4-5.5,0.8-8.1,1
			c-9.3,0.8-18.5,1.6-27.8,2.2c-1.7,0.1-4.1-0.7-5-1.9c-6-7.5-11.7-15.3-17.8-23.5c5.2-3.5,10.2-7,15.3-10.3
			c-2.4-0.1-4.9-0.2-7.4-0.2c-3.5,2.4-6.9,4.7-10.5,7.1c-1.8-2.2-3.5-4.3-5.4-6.7c-7.7,0.5-15.3,1.5-22.7,3c0,0-0.1,0-0.1,0.1
			c0,0,0,0,0,0c-4.5,0.9-8.9,1.9-13.2,3.1c2,7.6,3.9,15.1,5.6,22.7c0.3,1.4-0.5,3.7-1.5,4.7c-8.3,7.9-16.9,15.6-25.4,23.3
			c-1,0.9-2.8,1.7-3.8,1.4c-14.4-4.1-28.7-8.5-43.5-12.9c0.4-1.7,0.8-3.3,1.1-5c-4.2,3.3-8.2,6.8-12,10.4c2.9,0.9,5.9,1.7,8.9,2.6
			c-7.2,19.6-14.3,38.9-21.6,58.7c-5.6-2.3-10.5-4.3-15.9-6.6c3.2-11.4,6.5-22.9,9.7-34.3c-5.4,6.8-10.3,13.9-14.7,21.4
			c-0.6,2-1.1,4-1.7,6c-0.4-0.2-0.9-0.5-1.3-0.7c-0.7,1.3-1.4,2.5-2,3.8c0.1,0.1,0.3,0.2,0.4,0.2c0.7,0.5,1.2,2.3,1,3.3
			c-5.4,19.2-10.8,38.4-16.4,57.9c-1.5-0.5-2.8-0.9-4.2-1.3c-0.4,3-0.8,5.9-1,8.9C190.1,483.6,192.4,484.6,201,488.7z M248.4,563.1
			c-7.7-0.8-15.4-1.6-23.4-2.4c4.3-18.1,8.6-35.8,13-54.2c6.2,3,12,5.6,17.6,8.6c0.9,0.5,1.4,2.8,1.2,4.2
			C254.1,533.7,251.3,548,248.4,563.1z M477.9,524.9c-17.1,11.4-34.4,22.7-51.7,34c-4-2.3-4.2-4.9-2.9-8.6
			c4.4-12.9,8.4-25.8,12.7-39.2c14.7,3,29.3,5.9,44.9,9.1C479.7,522.2,479.1,524.1,477.9,524.9z M478.7,529.5
			c-3.1,17.6-5.9,33.7-8.9,50.4c-12.9-2.2-25.6-4.3-38.2-6.5c-1.1-3.6-2.1-6.9-3.3-10.8C444.6,551.9,461.1,541.1,478.7,529.5z
			 M383.2,597.8c-5.3,7-10,13.2-15.3,20.1c-4.7-8.1-9.1-15.5-14.3-24.4C364.2,595.5,374.1,592,383.2,597.8z M353.8,580.5
			c1-5.7,1.9-10.9,2.9-16.7c5.3,2.5,10.5,4.2,14.5,7.3c1.9,1.5,1.6,5.8,2.5,9.4C366.8,580.5,360.7,580.5,353.8,580.5z M369.9,555.3
			c-9.1-5-18.7-9.1-29-14.1c2.5-1,3.8-1.6,5.2-2.1c11.7-4.3,23.3-8.5,35.5-13c2.1,8.2,4.1,16.2,6.2,24.3c-1.3,1-3,1.8-3.8,3.1
			C379.8,559.7,375.4,558.3,369.9,555.3z M353.8,480.4c5-1.9,9.6-3.7,14.9-5.8c4,15.8,7.9,31.3,11.9,47.2c-4.7,1.7-9,3.3-13.9,5.1
			C362.4,511.3,358.1,496,353.8,480.4z M362.9,528.5c-8.7,3.2-17,6.4-25.5,9.3c-1.2,0.4-3,0.2-4.3-0.4c-6-2.8-12-5.8-18.9-9.2
			c14.8-6.2,28.8-12,43.5-18.1C359.4,516.3,361.1,522.2,362.9,528.5z M355.8,503.9c0.2,0.8-0.8,2.6-1.7,2.9
			c-8.5,3.7-17.1,7.2-26,10.9c-4.3-7.6-8.5-14.9-12.9-22.7c11.6-4.5,22.7-8.7,34.5-13.2C351.9,489.4,354,496.6,355.8,503.9z
			 M324.4,519.4c-4.8,2-9.3,3.9-13.9,5.7c-0.9,0.4-2.3,0.2-3.2-0.3c-9.9-4.7-19.7-9.4-30.8-14.8c12.4-4.7,23.5-9,34.9-13.3
			C315.6,504.2,319.8,511.5,324.4,519.4z M300.4,536.6c-2.8,5.3-5.3,10.2-8,14.9c-0.5,0.9-2.4,1.8-3.4,1.6c-9.6-1.9-19.1-4-29.1-6.1
			c1.7-9.2,3.4-17.9,5.2-27.4C277,525.3,288.4,530.8,300.4,536.6z M315.4,563.3c-0.6,4.9-0.9,9.4-1.7,13.8c-0.1,0.9-1.7,2.1-2.6,2.1
			c-18.8-0.5-37.6-1.1-56.4-1.8c-0.1,0-0.2-0.2-0.6-0.6c1.6-8.4,3.3-17,5-25.8C278,555.2,296.4,559.2,315.4,563.3z M313.9,558.6
			c-5.9-1.1-11.7-2.5-18.3-4c3-5.6,5.7-10.7,8.6-16.1c6.5,3.1,12.6,6,19.4,9.3c-2,3.4-3.7,6.8-5.9,9.8
			C317.1,558.5,315.1,558.9,313.9,558.6z M328.1,550c8,3.8,16.2,7.8,24.6,11.8c-1,5.5-1.8,10.7-2.9,15.9c-0.2,1-1.5,2.4-2.4,2.4
			c-9.6,0.2-19.2,0.1-29.3,0.1C318.2,568.1,320.3,558.3,328.1,550z M402.1,560.7c8.6,0,15.6,6.9,15.8,15.4c0.2,8.7-7,15.9-15.7,15.9
			c-8.8,0-16-7.3-15.8-15.9C386.5,567.7,393.6,560.7,402.1,560.7z M410,548c-2.4-0.4-4.3-0.3-5.9-1c-1.5-0.7-3.5-1.9-3.9-3.2
			c-4.5-17.2-8.8-34.4-13.3-52.3c5.3-1.7,10.6-3.5,15.9-5.2c-1.1-2-1.1-2-17,0.5c-4.9-19.2-9.7-38.5-14.7-58.2
			c7.9-2.2,15.5-4.4,23.4-6.7c4.2,10.2,8.1,20.2,12.4,30.1c1.2,2.8,3.5,5.1,5.3,7.6c0.5-0.3,1.1-0.6,1.6-0.9
			c-2.1-5.4-4.2-10.9-6.6-16.9c14.3-7.3,28.6-14.6,44-22.5c-7.9,24.8-15.6,48.6-23.5,73.3c-3.6-8.7-6.7-16.3-9.8-23.9
			c-0.4,0-0.8,0-1.3,0c-0.2,2.8-0.5,5.6-0.7,8.4c-3,1.9-6.5,4-10,6.2c0.3,0.5,0.5,1,0.8,1.6c3.7-1.1,7.5-2.1,11.8-3.4
			c3.3,8.9,8.9,16.5,4.3,27.2C417.6,521.3,414.3,534.6,410,548z M438.6,503.2c4.3-13.3,8.3-26.1,12.6-39.4
			c12.5,2.4,24.9,4.7,37.9,7.2c-2.4,13.7-4.8,27.2-7.2,41C467.3,509,453.2,506.1,438.6,503.2z M453.8,455.9
			c3.2-10.2,6.3-19.9,9.7-30.5c12.6,11.4,24.9,22.5,37.1,33.5c-0.9,4.9-3.3,5.6-7.3,4.8C480.4,460.9,467.3,458.5,453.8,455.9z
			 M455.3,406.6c-4.8-1.2-8.9-2.3-13.8-3.5c2.1-7.8,4.1-15.4,6.3-23.3c5,1.7,9.5,3.2,14.6,4.9C459.9,392,457.7,399,455.3,406.6z
			 M437.3,402.2c-7.1-1.8-13.8-3.6-20.9-5.4c3.2-8.1,6.3-15.8,9.6-24.2c6.2,2.1,11.8,3.9,17.8,5.9
			C441.6,386.5,439.5,394.1,437.3,402.2z M452,414.4c-16.1,8.2-31.1,15.8-46.4,23.6c-2.3-5.6-4.5-10.7-6.4-16
			c-0.4-1.2-0.1-3.2,0.7-4.4c2.7-4,5.6-7.9,8.8-11.5c0.9-1.1,3.2-2,4.5-1.7C425.7,407.5,438.2,410.8,452,414.4z M369.9,424.2
			c-2.7-10.9-5.4-21.4-8.3-32.9c15.1,3.8,29.3,7.4,43.2,11C399.2,418.7,384.7,420.8,369.9,424.2z M360.8,382.4
			c-1.4-0.5-2.2-3.4-2.7-5.3c-2.4-9.2-2.3-9.2,5.9-13.9c2.7-1.6,5.5-3.1,8.6-4.9c2.5,8.7,4.9,16.9,7.2,25.2c0.3,1.1,0.4,2.2,0.8,4
			C373.5,385.8,367,384.5,360.8,382.4z M357.5,430.2c3.1,12,6.1,24.1,9.2,36.5c-12.3,4.7-24.2,9.2-37.3,14.2
			c3.9-19.9,7.6-38.8,11.4-58.4c5.3,1.8,10,3.4,14.6,5.1C356.3,428,357.3,429.2,357.5,430.2z M317.2,409.8c2.5-9.8,5-19.2,7.5-29.1
			c7.1,2.1,13.7,4.1,20.3,6.2c0.8,0.2,1.7,1.2,1.9,1.9c2.9,11.2,5.7,22.4,8.8,34.5C342.3,418.6,329.8,414.3,317.2,409.8z
			 M336.8,421.1c-2.4,12.5-4.8,24.9-7.2,37.2c-1.4,7-2.6,14.1-4.3,21c-0.4,1.7-2.1,3.5-3.6,4.5c-8.1,5-15.6,4.7-22.6-2.4
			c-2.5-2.6-5.8-4.6-9-6.2c-4.8-2.4-5.3-5.8-4.8-10.9c1.7-19.6,8.8-37.3,18.1-55C314.5,413.3,325.5,417.2,336.8,421.1z M285.9,437.9
			c-5.7-0.7-11.4-1.3-17.7-2.1c3.9-11.6,7.6-22.9,11.5-34.6c6.6,2.3,12.8,4.5,19.2,6.8C294.5,418.1,290.3,427.8,285.9,437.9z
			 M269.1,440.2c5.1,0.4,10.2,1.2,15.6,1.9c-1.3,8.9-2.6,17.2-4,26.6c-6.3-4.3-12.1-8.2-17.9-12.4c-0.6-0.4-0.7-2.2-0.5-3.1
			c1.1-3.7,2.2-7.3,3.7-10.9C266.4,441.3,268.1,440.1,269.1,440.2z M304.8,490.4c-12.8,4.9-24.5,9.4-36.3,13.8
			c-1.1,0.4-2.7,0.6-3.7,0.1c-5.6-2.5-11.1-5.3-16.9-8.1c4.1-12.2,8-24.1,12.2-36.5C275,469.9,289.4,479.8,304.8,490.4z
			 M275.7,616.5c-5-0.4-10-0.6-14.9-1.3c-1.3-0.2-3.2-1.9-3.4-3.2c-1.4-6.7-2.3-13.4-3.4-20.8c23.5,0.7,46.6,1.4,70.4,2
			c-2.5,8.9-5,17.5-7.5,26.4C302.8,618.5,289.2,617.5,275.7,616.5z M338.4,666.1c-8.9-3.4-17.2-6.6-26.1-10c1.3-3.3,2.3-6.4,3.7-9.3
			c0.5-0.9,2.4-1.9,3.4-1.6c8.1,1.7,16.2,3.7,24.9,5.8C342.2,656.1,340.4,660.8,338.4,666.1z M338,641.2c-5.7-2.2-11.9-2.9-18-4.4
			c4.3-14.5,8.6-28.6,12.9-43.2c0.6-0.1,1-0.1,1.5-0.2c11-1.8,18.1,2.5,22.1,13c2,5.2,7.8,10,7.6,14.7c-0.2,4.7-6.4,8.9-9.1,13.8
			C351,642.3,345.9,644.3,338,641.2z M375.4,649.8c-7.4-1.7-14.6-3.3-22.6-5.2c5.2-6.9,10.2-13.5,15.4-20.4
			c4.6,1.9,9.2,3.7,14.3,5.8C380.1,636.9,377.8,643.1,375.4,649.8z M384,626.1c-4.5-1.8-8.6-3.5-13.1-5.4c5.1-6.7,10-13.2,15-19.8
			c2.2,1.1,3.9,2,6.1,3.1C389.5,611.2,386.8,618.4,384,626.1z M392.5,626.9c2.6-7.1,4.7-13.7,7.5-19.9c1.4-3.2,11.4-2.3,13,0.8
			c2.3,4.6,4.5,9.2,6.8,13.9c0.1,0.3,0.1,0.6,0.2,1.7C411,624.5,402.3,625.6,392.5,626.9z M402.8,659.7c0.5-5.6,1-10.6,1.5-15.7
			c0.1-0.7,0.2-1.3,0.3-2c1.9-13.5,1.9-13.6,15.4-14.5c1.1-0.1,2.9,0.8,3.4,1.7c3.7,7,7.1,14.2,10.8,21.8
			C423.7,653.9,413.7,656.7,402.8,659.7z M435,621.8c-4.1-8.4-9.5-15.5-10.7-23.2c-0.7-5,4.7-11,7.5-16.5c0.1-0.3,1.3-0.1,1.9,0
			c6.3,1.1,12.7,2.2,19.7,3.4C447.3,597.6,441.4,609.2,435,621.8z M486.5,604.6c-12-1.7-23.3-3.3-35.4-5c2.1-4.2,3.9-8.1,6.1-11.8
			c0.4-0.7,2.2-1.2,3.3-1c9.3,1.4,18.7,3,28.9,4.7C488.4,595.8,487.5,599.9,486.5,604.6z M519.8,609.4c-9.7-1.4-19.1-2.7-29.1-4.1
			c1-4.6,1.9-8.5,2.9-12.9c9.4,1.6,18.5,3.1,28,4.7C520.9,601.3,520.4,605,519.8,609.4z M522.7,588.9c-15-2.6-29.7-5.1-44.8-7.6
			c1-5.5,1.9-10.5,2.8-16c15.1,2.8,29.5,5.5,44.2,8.3C524.2,578.8,523.5,583.7,522.7,588.9z M525.5,569.4c-14.8-2.8-29.1-5.5-44-8.3
			c1.5-8.3,2.9-16.2,4.4-24.7c13.5,7,26.4,13.6,39.1,20.3c1.1,0.6,1.9,2.6,1.8,3.9C526.7,563.3,526,565.9,525.5,569.4z M527.8,553.4
			c-13.3-6.9-26.1-13.5-38.8-20.3c-1-0.6-1.8-2.6-1.8-3.9c0-2.3,0.8-4.5,1.3-7.6c14.3,2.9,28.1,5.7,42.5,8.6
			C530,537.9,529,545.3,527.8,553.4z M538.2,480.5c-2,13.9-3.9,27.6-6,41.7c-14.4-2.9-28.1-5.7-42.4-8.6c2.4-13.7,4.8-27,7.3-41
			C511.1,475.3,524.3,477.8,538.2,480.5z M518.2,391.2c5.2,1.1,10.4,2,16.4,3.1c-10.7,20.6-21.1,40.6-31.7,61
			c-6.1-5.5-11.7-10.6-17.6-16c4.7-7.8,9.2-15.3,13.7-22.9c4.5-7.6,9.2-15.1,13.5-22.7C513.9,391.3,515.5,390.6,518.2,391.2z
			 M476.8,383.9c11,2,21.7,3.9,33.3,6c-9.4,15.7-18.5,30.9-28,46.7c-5.5-5.1-10.6-9.6-15.5-14.3c-0.7-0.7-1.2-2.4-0.9-3.3
			C469.3,407.3,473,395.8,476.8,383.9z M442.3,331.5c11.1,4.4,21.7,8.6,32.9,13c-3.8,12-7.6,23.8-11.6,36.1
			c-12.2-4-23.9-7.9-36.1-12C432.5,356.1,437.3,344,442.3,331.5z M401.8,346.5c8.6,0,17.2-1.3,26.6-2.1c-6.8,17-13.3,33.3-20,50.2
			c-7.2-1.9-14.3-3.6-21.3-5.6c-0.9-0.3-1.8-1.8-2.1-2.9c-2.6-8.9-5.1-17.9-7.8-26.8c-0.8-2.6,0.2-3.8,2.3-5.1
			C386.4,349.9,393.3,346.6,401.8,346.5z M387.3,345c-10.8,6.2-21.4,12.3-32.6,18.7c-2.5-9.7-4.8-18.6-6.9-27.6
			c-0.2-0.9,0.6-2.5,1.5-3.1c6.3-4.4,12.6-8.6,19.2-13C374.7,328.2,380.8,336.3,387.3,345z M350.2,314.2c2.8-2.1,5.7-4,8.9-6.2
			c2.4,3,4.4,5.6,6.8,8.6c-6.5,4.4-12.9,8.7-19.3,13c-0.4-0.6-0.6-0.9-0.7-1.2C342.9,319.7,342.9,319.6,350.2,314.2z M335.6,343.5
			c2.9,11.6,5.7,22.6,8.7,34.4c-11.9-3.5-23-6.8-34.9-10.3C318.5,359.3,326.7,351.7,335.6,343.5z M320.6,379.4
			c-2.5,9.7-4.8,19-7.3,29c-11.1-3.9-21.5-7.5-32.3-11.3c3-9,5.9-17.6,8.9-26.8C300.2,373.4,310.1,376.3,320.6,379.4z M261.5,361.9
			c7,2.1,13.5,4,20.6,6.1c-2.9,8.8-5.7,17.3-8.8,26.5c-7.2-2.2-14.1-4.3-21.3-6.6C255.2,379.2,258.2,370.8,261.5,361.9z M250.4,392
			c7.2,2.2,14,4.3,21.4,6.6c-3.5,10.5-6.9,20.8-10.5,31.5c-7.4-3.1-14.2-5.9-21.6-9C243.3,411.3,246.8,401.7,250.4,392z
			 M217.7,420.8c13.8,5.8,27.1,11.3,40.9,17.1c-1.5,4.6-2.9,8.7-4.5,13.6c-13.4-6.1-26.5-12.1-40-18.3
			C215.4,428.8,216.4,425.1,217.7,420.8z M203.1,472.6c3.2-11.7,6.5-23.3,9.9-35.4c13.5,6.2,26.3,12,39.8,18.2
			c-4.2,12.5-8.2,24.5-12.4,37.2c-12.3-5.9-24.1-11.6-35.9-17.4C203.7,474.9,202.9,473.4,203.1,472.6z"/>
		<path class="st11" d="M196.8,532.4c-1.5-0.3-2.9-0.5-4.3-0.8c0.6,2.9,1.2,5.8,1.9,8.6c0.5-1.4,1-2.9,1.5-4.3
			C196.3,534.9,196.5,533.7,196.8,532.4z"/>
		<path class="st11" d="M211.4,412.5c0.3-1-0.2-2.8-1-3.3c-0.1-0.1-0.3-0.2-0.4-0.2c-9.6,18.5-16.2,38.7-19.2,60.2
			c1.4,0.4,2.6,0.8,4.2,1.3C200.6,450.9,206,431.7,211.4,412.5z"/>
		<path class="st11" d="M191.1,523.5c2.1,0.2,3.9,0.4,5.8,0.3c1.1-0.1,2.7-0.9,3-1.7c3-9.8,5.8-19.7,8.7-29.7
			c-2.8-1.4-5.2-2.6-7.6-3.7c-8.6-4-10.8-5.1-11.2-10.6c-0.5,5.7-0.8,11.4-0.8,17.2c0,0.1,0,0.3,0,0.4
			C189,505.2,189.7,514.4,191.1,523.5z"/>
		<path class="st11" d="M258.7,619.5c0.9,5.5,1.6,10.2,2.4,14.9c0.6,3.6,1.2,7.1,1.8,10.7c10.9,8.4,22.8,15.6,35.5,21.5
			c6.5-13.7,12.1-27.9,16.8-42.8C296.3,622.3,277.9,621,258.7,619.5z"/>
		<path class="st11" d="M528.2,608.8c2.3-3,4.5-6.1,6.6-9.3c-1.7-0.3-3.4-0.5-5.2-0.8C529.1,602.1,528.6,605.5,528.2,608.8z"/>
		<path class="st11" d="M525.6,378.8c-2.7-3.4-5.5-6.8-8.5-10c-3.6,2.1-7.2,4.3-10.9,6.5C512.8,376.5,519.2,377.7,525.6,378.8z"/>
		<path class="st11" d="M401.6,630.3c-10.4-0.1-10.4-0.1-13.6,8.8c-1.1,3.1-2.3,6.2-3.4,9.4c-4.2,11.8-8.3,23.6-12.5,35.4
			c1.8,0.1,3.6,0.1,5.4,0.1c6.1,0,12.1-0.3,18-0.9c1.2-9.4,2.4-18.8,3.5-28.3C399.9,646.7,400.7,638.6,401.6,630.3z"/>
		<path class="st11" d="M530.9,590.3c2.9,0.5,5.8,1,8.7,1.5c5.3-8.9,9.8-18.2,13.6-27.9c-6-1.1-12-2.2-18.2-3.3
			C533.6,570.7,532.3,580.4,530.9,590.3z"/>
		<path class="st11" d="M559.3,445.6c-3.1-11.5-7.3-22.5-12.4-32.9c-1.6,9.5-3.2,19.1-4.8,28.7C548,442.9,553.7,444.2,559.3,445.6z"
			/>
		<path class="st11" d="M348.4,651.9c-3.7,9.5-7.3,18.6-10.8,27.8c8.4,1.8,16.9,3.1,25.7,3.7c3-8.5,6-17,9.2-25.9
			C364.1,655.7,356.4,653.8,348.4,651.9z"/>
		<path class="st11" d="M546.2,482.3c-2,13.8-3.9,27.4-5.9,41.4c6.3,1.3,12.1,2.4,17.9,3.6c2.4-8.4,4.6-16.4,6.8-24.3c0-6,0-12,0-18
			C558.8,484.1,552.7,483.3,546.2,482.3z"/>
		<path class="st11" d="M310.6,660.1c-1.6,3.3-3.1,6.6-4.6,9.8c8.8,3.6,17.9,6.6,27.4,8.8c1.1-2.8,2.3-5.7,3.5-8.6
			C327.8,666.7,319.2,663.4,310.6,660.1z"/>
		<path class="st11" d="M536.9,472c9.6,1.7,18.9,3.4,28.1,5c0-0.3,0-0.7,0-1c-0.9-8.9-2.4-17.5-4.5-26c-6.2-1.4-12.5-2.8-19.1-4.3
			C539.8,454.5,538.4,462.9,536.9,472z"/>
		<path class="st11" d="M535.8,556.3c6.6,1.3,12.8,2.5,18.9,3.7c2.8-7.7,5.1-15.6,6.9-23.7c-7.3-1.4-14.7-2.9-22.3-4.4
			C538,540.2,536.9,548.2,535.8,556.3z"/>
		<path class="st11" d="M404.3,663.7c-1,0.3-2.1,1.6-2.3,2.5c-0.7,5.4-1.2,10.9-1.7,16.3c8.9-1.1,17.7-2.8,26.2-5.1
			c-2.2-6-4.3-12-6.5-18.2C414.5,660.9,409.4,662.2,404.3,663.7z"/>
		<path class="st11" d="M424.3,658.3c2.1,6.2,4.1,12.2,6.1,18.2c4.7-1.4,9.4-3,14-4.7c-2.8-5.6-5.6-11.2-8.4-16.8
			C431.8,656.1,428.1,657.2,424.3,658.3z"/>
		<path class="st11" d="M418.5,481.6c-4.3,1.2-8.1,2.3-11.8,3.4c-0.3-0.5-0.5-1-0.8-1.6c3.5-2.2,6.9-4.3,10-6.2
			c0.2-2.8,0.5-5.6,0.7-8.4c0.4,0,0.8,0,1.3,0c3.1,7.6,6.3,15.3,9.8,23.9c7.9-24.8,15.5-48.5,23.5-73.3c-15.4,7.9-29.7,15.1-44,22.5
			c2.4,6,4.5,11.5,6.6,16.9c-0.5,0.3-1.1,0.6-1.6,0.9c-1.8-2.5-4.1-4.8-5.3-7.6c-4.3-9.9-8.2-19.9-12.4-30.1
			c-7.9,2.3-15.5,4.4-23.4,6.7c5,19.7,9.9,39,14.7,58.2c15.9-2.6,15.9-2.6,17-0.5c-5.3,1.7-10.6,3.5-15.9,5.2
			c4.5,17.9,8.8,35.1,13.3,52.3c0.4,1.3,2.4,2.6,3.9,3.2c1.6,0.7,3.5,0.6,5.9,1c4.3-13.4,7.5-26.7,12.8-39.2
			C427.4,498.1,421.8,490.5,418.5,481.6z"/>
		<path class="st11" d="M302.9,365.6c1.1,0.3,2.9-0.5,3.8-1.4c8.6-7.7,17.1-15.4,25.4-23.3c1.1-1,1.9-3.3,1.5-4.7
			c-1.7-7.6-3.7-15.1-5.6-22.7c-25,6.8-47.9,18.5-67.6,34.1c-0.4,1.7-0.8,3.3-1.1,5C274.3,357.1,288.6,361.5,302.9,365.6z"/>
		<path class="st11" d="M285.2,464.4c-0.4,5,0,8.4,4.8,10.9c3.2,1.6,6.5,3.7,9,6.2c7,7.1,14.6,7.4,22.6,2.4c1.6-1,3.2-2.8,3.6-4.5
			c1.7-6.9,2.9-14,4.3-21c2.4-12.3,4.8-24.7,7.2-37.2c-11.4-4-22.3-7.8-33.6-11.8C294,427.1,286.9,444.8,285.2,464.4z"/>
		<path class="st11" d="M451.6,604.1c-1.2-0.2-3.2,1-3.8,2.1c-3.3,6-6.4,12-9.3,18.2c-0.6,1.2-0.6,3-0.1,4.2
			c3,6.4,6.2,12.8,9.5,19.3c20.7-5.9,41-11.7,61.4-17.5c3.1-3,6.1-6.1,9-9.4c0.3-2.4,0.6-4.8,1-7.4
			C496.3,610.3,473.9,607.1,451.6,604.1z"/>
		<path class="st11" d="M215,399.9c-1,1.7-2,3.5-3,5.2c0.4,0.2,0.9,0.5,1.3,0.7C213.9,403.9,214.4,401.9,215,399.9z"/>
		<path class="st11" d="M489.9,513.6c14.3,2.9,28.1,5.7,42.4,8.6c2-14.1,4-27.8,6-41.7c-13.9-2.7-27.1-5.2-41.1-7.9
			C494.7,486.5,492.3,499.9,489.9,513.6z"/>
		<path class="st11" d="M341.4,310.5c0,0-0.1,0-0.1,0C341.3,310.5,341.3,310.5,341.4,310.5C341.3,310.5,341.4,310.5,341.4,310.5z"/>
		<path class="st11" d="M489.1,471c-13-2.5-25.3-4.8-37.9-7.2c-4.3,13.3-8.3,26.1-12.6,39.4c14.6,3,28.7,5.8,43.2,8.8
			C484.3,498.2,486.7,484.7,489.1,471z"/>
		<path class="st11" d="M377.2,359.2c2.7,8.9,5.1,17.9,7.8,26.8c0.3,1.1,1.2,2.7,2.1,2.9c7,2,14,3.7,21.3,5.6
			c6.8-16.9,13.3-33.2,20-50.2c-9.4,0.8-18,2.1-26.6,2.1c-8.5,0-15.4,3.4-22.2,7.6C377.4,355.4,376.4,356.6,377.2,359.2z"/>
		<path class="st11" d="M204.5,475.3c11.8,5.8,23.6,11.4,35.9,17.4c4.2-12.6,8.2-24.7,12.4-37.2c-13.5-6.2-26.3-12.1-39.8-18.2
			c-3.4,12.1-6.7,23.7-9.9,35.4C202.9,473.4,203.7,474.9,204.5,475.3z"/>
		<path class="st11" d="M324.3,593.2c-23.7-0.7-46.9-1.4-70.4-2c1.2,7.4,2.1,14.2,3.4,20.8c0.3,1.3,2.1,3,3.4,3.2
			c4.9,0.7,9.9,0.9,14.9,1.3c13.6,1,27.1,2,41.1,3.1C319.3,610.7,321.7,602.1,324.3,593.2z"/>
		<path class="st11" d="M364.1,621.2c0.2-4.7-5.6-9.5-7.6-14.7c-4-10.5-11.2-14.8-22.1-13c-0.5,0.1-1,0.1-1.5,0.2
			c-4.4,14.6-8.6,28.7-12.9,43.2c6.2,1.4,12.4,2.2,18,4.4c7.9,3,13,1.1,17-6.2C357.7,630.1,363.9,625.9,364.1,621.2z"/>
		<path class="st11" d="M463.6,380.6c4-12.3,7.7-24.1,11.6-36.1c-11.1-4.4-21.7-8.6-32.9-13c-5,12.4-9.8,24.5-14.8,37
			C439.7,372.7,451.5,376.6,463.6,380.6z"/>
		<path class="st11" d="M502,368.5c2.8-2.3,6-4,9.2-5.8c-6.7-6.8-14-13-21.6-18.7c-2.8,8.9-5.7,17.7-8.5,26.5
			C488.7,373.2,495.4,373.7,502,368.5z"/>
		<path class="st11" d="M504.2,462c-0.5,0.9-0.7,2-1.2,3.3c10,1.9,19.6,3.8,29.7,5.7c3.7-21.8,7.3-43.4,10.9-64.7
			c-1.7-3.2-3.5-6.3-5.4-9.4c-0.6,0.7-1.1,1.6-1.6,2.6C525.9,420.4,515,441.2,504.2,462z"/>
		<path class="st11" d="M485.3,439.4c5.9,5.4,11.5,10.5,17.6,16c10.6-20.5,21-40.5,31.7-61c-6-1.1-11.2-2-16.4-3.1
			c-2.6-0.6-4.2,0.1-5.6,2.6c-4.4,7.7-9,15.2-13.5,22.7C494.5,424,490,431.6,485.3,439.4z"/>
		<path class="st11" d="M436,511.1c-4.3,13.4-8.3,26.4-12.7,39.2c-1.3,3.7-1.1,6.3,2.9,8.6c17.3-11.3,34.5-22.6,51.7-34
			c1.2-0.8,1.8-2.7,3.1-4.8C465.3,517,450.8,514,436,511.1z"/>
		<path class="st11" d="M431.6,573.4c12.6,2.1,25.2,4.3,38.2,6.5c2.9-16.7,5.8-32.9,8.9-50.4c-17.6,11.6-34.1,22.4-50.4,33.2
			C429.5,566.5,430.5,569.8,431.6,573.4z"/>
		<path class="st11" d="M247.8,496.2c5.9,2.8,11.3,5.6,16.9,8.1c1,0.5,2.6,0.3,3.7-0.1c11.8-4.4,23.6-8.9,36.3-13.8
			c-15.4-10.6-29.8-20.5-44.8-30.7C255.9,472.1,251.9,484,247.8,496.2z"/>
		<path class="st11" d="M355.4,427.7c-4.6-1.8-9.3-3.3-14.6-5.1c-3.8,19.6-7.5,38.5-11.4,58.4c13-5,25-9.5,37.3-14.2
			c-3.1-12.4-6.1-24.5-9.2-36.5C357.3,429.2,356.3,428,355.4,427.7z"/>
		<path class="st11" d="M221.2,558.6c4.1-17.1,8.3-34.2,12.3-51.3c0.3-1.1-0.8-3.2-1.8-3.7c-4.9-2.7-10.1-4.9-15.6-7.6
			c-5.8,19.9-11.5,39.5-17.3,59.5c0.3,0.9,0.6,1.8,0.9,2.7c7.2,0.7,14,1.4,20.6,2.1C220.7,559.4,221,559,221.2,558.6z"/>
		<path class="st11" d="M466.6,422.2c4.9,4.7,10,9.2,15.5,14.3c9.5-15.8,18.6-31,28-46.7c-11.6-2.1-22.3-4-33.3-6
			c-3.8,12-7.5,23.5-11.1,35C465.4,419.9,465.9,421.5,466.6,422.2z"/>
		<path class="st11" d="M254.1,576.9c0.4,0.4,0.5,0.6,0.6,0.6c18.8,0.6,37.6,1.3,56.4,1.8c0.9,0,2.5-1.3,2.6-2.1
			c0.7-4.4,1.1-8.9,1.7-13.8c-19.1-4.1-37.4-8.1-56.3-12.2C257.4,559.9,255.8,568.5,254.1,576.9z"/>
		<path class="st11" d="M235.9,419.4c7.3-19.8,14.4-39.1,21.6-58.7c-3.1-0.9-6-1.8-8.9-2.6c-6.8,6.3-13,13.2-18.8,20.4
			c-3.3,11.5-6.5,22.9-9.7,34.3C225.4,415.1,230.3,417.1,235.9,419.4z"/>
		<path class="st11" d="M248.5,609c-6.8,0.6-13.5,1.2-20.2,1.7c5.2,6.8,10.9,13.2,17,19.2c2.2-0.2,4.3-0.5,6.5-0.7
			C250.7,622.2,249.6,616,248.5,609z"/>
		<path class="st11" d="M389.8,341c1,1.2,3.4,2,5,1.9c9.3-0.5,18.5-1.4,27.8-2.2c2.6-0.2,5.1-0.6,8.1-1c-0.6-1.3-0.7-2-1.1-2.4
			c-11.6-9.9-23.2-19.8-34.8-29.6c-2.5-0.2-5-0.4-7.5-0.5c-5.1,3.3-10.1,6.8-15.3,10.3C378.2,325.7,383.8,333.5,389.8,341z"/>
		<path class="st11" d="M255.6,515.2c-5.6-3-11.4-5.6-17.6-8.6c-4.4,18.4-8.7,36.1-13,54.2c8,0.8,15.7,1.6,23.4,2.4
			c2.9-15.1,5.7-29.5,8.4-43.8C257,518,256.5,515.6,255.6,515.2z"/>
		<path class="st11" d="M418.8,311.6c-5.4-1.2-10.9-2.2-16.5-2.9c3.9,3.3,7.7,6.5,11.6,9.8C415.6,316.1,417.2,313.8,418.8,311.6z"/>
		<path class="st11" d="M345,386.9c-6.6-2.1-13.2-4.1-20.3-6.2c-2.5,9.9-5,19.3-7.5,29.1c12.7,4.5,25.1,8.8,38.5,13.5
			c-3.1-12.1-5.9-23.3-8.8-34.5C346.7,388.1,345.8,387.2,345,386.9z"/>
		<path class="st11" d="M313.2,408.4c2.5-10,4.9-19.3,7.3-29c-10.4-3.1-20.4-6-30.7-9.1c-3,9.1-5.9,17.7-8.9,26.8
			C291.7,400.9,302.1,404.5,313.2,408.4z"/>
		<path class="st11" d="M347.8,336.1c2.1,9,4.4,17.9,6.9,27.6c11.2-6.5,21.8-12.5,32.6-18.7c-6.5-8.6-12.6-16.7-18.8-25
			c-6.6,4.4-13,8.6-19.2,13C348.4,333.5,347.6,335.2,347.8,336.1z"/>
		<path class="st11" d="M245.5,591c-10.4-0.3-20.6-0.6-31-0.9c3.3,5.8,7,11.3,10.9,16.6c7.5-0.6,15-1.3,22.5-1.9
			C247,599.9,246.3,595.7,245.5,591z"/>
		<path class="st11" d="M408.6,406.1c-3.2,3.6-6,7.5-8.8,11.5c-0.8,1.1-1.2,3.1-0.7,4.4c1.9,5.3,4.1,10.5,6.4,16
			c15.3-7.8,30.3-15.4,46.4-23.6c-13.8-3.6-26.3-6.9-38.9-9.9C411.8,404.1,409.6,405,408.6,406.1z"/>
		<path class="st11" d="M500.6,458.9c-12.2-11-24.4-22.1-37.1-33.5c-3.4,10.6-6.5,20.3-9.7,30.5c13.5,2.6,26.6,5,39.5,7.8
			C497.3,464.5,499.8,463.8,500.6,458.9z"/>
		<path class="st11" d="M315.3,495.1c4.4,7.8,8.6,15.1,12.9,22.7c8.9-3.7,17.5-7.2,26-10.9c0.9-0.4,1.9-2.1,1.7-2.9
			c-1.9-7.3-4-14.6-6.1-22.1C338,486.4,326.9,490.7,315.3,495.1z"/>
		<path class="st11" d="M369.9,424.2c14.7-3.4,29.2-5.5,34.9-22c-14-3.5-28.2-7.2-43.2-11C364.5,402.8,367.2,413.3,369.9,424.2z"/>
		<path class="st11" d="M259.9,547c10,2.1,19.5,4.3,29.1,6.1c1,0.2,2.9-0.7,3.4-1.6c2.8-4.7,5.2-9.6,8-14.9
			c-12-5.8-23.4-11.3-35.3-17C263.3,529,261.6,537.8,259.9,547z"/>
		<path class="st11" d="M476.5,340.5c0.5-1.5,1-3,1.4-4.5c-9.8-6.2-20.2-11.5-31.1-15.8c-1,2.5-2,4.9-3,7.4
			C454.9,331.9,465.5,336.1,476.5,340.5z"/>
		<path class="st11" d="M524.9,556.8c-12.7-6.8-25.6-13.3-39.1-20.3c-1.5,8.5-2.9,16.4-4.4,24.7c14.9,2.8,29.2,5.5,44,8.3
			c0.6-3.5,1.3-6.1,1.3-8.7C526.8,559.4,526,557.3,524.9,556.8z"/>
		<path class="st11" d="M387.8,550.5c-2.1-8.2-4.1-16.1-6.2-24.3c-12.2,4.4-23.8,8.7-35.5,13c-1.4,0.5-2.7,1.1-5.2,2.1
			c10.3,4.9,19.9,9.1,29,14.1c5.6,3,10,4.4,14.1-1.7C384.8,552.3,386.5,551.5,387.8,550.5z"/>
		<path class="st11" d="M347.5,580.2c0.8,0,2.2-1.4,2.4-2.4c1.1-5.2,1.9-10.4,2.9-15.9c-8.4-4.1-16.6-8-24.6-11.8
			c-7.8,8.3-9.9,18.1-9.9,30.2C328.2,580.3,337.8,580.3,347.5,580.2z"/>
		<path class="st11" d="M402.1,592c8.7,0,15.9-7.3,15.7-15.9c-0.2-8.5-7.2-15.4-15.8-15.4c-8.5,0-15.6,7-15.8,15.5
			C386.1,584.7,393.4,592,402.1,592z"/>
		<path class="st11" d="M380.6,521.9c-4-15.9-7.9-31.4-11.9-47.2c-5.3,2-9.9,3.8-14.9,5.8c4.3,15.6,8.6,30.9,12.9,46.5
			C371.6,525.2,375.9,523.6,380.6,521.9z"/>
		<path class="st11" d="M487.2,529.2c0,1.3,0.8,3.3,1.8,3.9c12.7,6.8,25.5,13.4,38.8,20.3c1.1-8.1,2.2-15.5,3.3-23.2
			c-14.4-2.9-28.2-5.7-42.5-8.6C488,524.7,487.2,527,487.2,529.2z"/>
		<path class="st11" d="M271.8,398.6c-7.4-2.3-14.2-4.4-21.4-6.6c-3.6,9.8-7.1,19.3-10.7,29.2c7.4,3.1,14.3,6,21.6,9
			C264.9,419.4,268.3,409.1,271.8,398.6z"/>
		<path class="st11" d="M477.9,581.3c15.1,2.6,29.8,5.1,44.8,7.6c0.8-5.2,1.5-10.1,2.2-15.4c-14.7-2.8-29-5.5-44.2-8.3
			C479.8,570.8,478.9,575.8,477.9,581.3z"/>
		<path class="st11" d="M276.4,510c11.1,5.4,20.9,10.1,30.8,14.8c0.9,0.4,2.3,0.6,3.2,0.3c4.6-1.7,9.1-3.7,13.9-5.7
			c-4.5-7.9-8.7-15.2-13-22.7C299.9,501.1,288.8,505.3,276.4,510z"/>
		<path class="st11" d="M333.1,537.4c1.2,0.6,3,0.8,4.3,0.4c8.4-2.9,16.8-6.1,25.5-9.3c-1.8-6.3-3.5-12.2-5.2-18.4
			c-14.6,6.1-28.6,12-43.5,18.1C321.2,531.6,327.1,534.6,333.1,537.4z"/>
		<path class="st11" d="M420,627.6c-13.5,0.9-13.5,1-15.4,14.5c-0.1,0.7-0.3,1.3-0.3,2c-0.5,5-0.9,10-1.5,15.7
			c10.9-3,20.9-5.7,31.4-8.6c-3.7-7.6-7.2-14.8-10.8-21.8C422.9,628.4,421.1,627.5,420,627.6z"/>
		<path class="st11" d="M268.1,435.8c6.3,0.7,12,1.4,17.7,2.1c4.4-10.1,8.6-19.8,13-29.9c-6.5-2.3-12.7-4.5-19.2-6.8
			C275.8,412.9,272,424.2,268.1,435.8z"/>
		<path class="st11" d="M433.8,582.1c-0.6-0.1-1.8-0.3-1.9,0c-2.8,5.5-8.3,11.5-7.5,16.5c1.1,7.7,6.6,14.9,10.7,23.2
			c6.4-12.6,12.3-24.2,18.4-36.4C446.4,584.3,440.1,583.1,433.8,582.1z"/>
		<path class="st11" d="M247.4,567.4c-15.5-1.6-30.7-3.2-46.1-4.9c1.8,4.7,3.8,9.4,5.9,13.9c13,0,25.8,0,38.7,0
			C246.4,573.7,246.9,570.7,247.4,567.4z"/>
		<path class="st11" d="M282.1,368c-7.1-2.1-13.6-4-20.6-6.1c-3.3,8.9-6.3,17.3-9.5,26.1c7.3,2.2,14.1,4.4,21.3,6.6
			C276.3,385.3,279.2,376.8,282.1,368z"/>
		<path class="st11" d="M258.6,437.9c-13.8-5.8-27.1-11.3-40.9-17.1c-1.2,4.3-2.3,8-3.6,12.4c13.5,6.2,26.6,12.1,40,18.3
			C255.7,446.6,257.1,442.5,258.6,437.9z"/>
		<path class="st11" d="M335.6,343.5c-8.9,8.1-17.2,15.8-26.2,24.1c11.9,3.5,23,6.8,34.9,10.3C341.3,366.1,338.6,355.2,335.6,343.5z
			"/>
		<path class="st11" d="M432.4,334.1c2.3-5.7,4.5-11.3,6.7-16.8c-5.2-1.8-10.5-3.4-15.9-4.7c-2,2.9-4,5.7-6.1,8.6
			C422.4,325.7,427.3,329.8,432.4,334.1z"/>
		<path class="st11" d="M480.2,653.6c5.1-3.3,10.1-6.9,14.8-10.7c-5.4,1.6-10.9,3.1-16.4,4.7C479.1,649.7,479.7,651.7,480.2,653.6z"
			/>
		<path class="st11" d="M416.4,396.8c7.1,1.8,13.8,3.6,20.9,5.4c2.2-8,4.2-15.7,6.4-23.7c-6-2-11.6-3.9-17.8-5.9
			C422.6,380.9,419.6,388.6,416.4,396.8z"/>
		<path class="st11" d="M457.1,587.8c-2.1,3.7-3.9,7.6-6.1,11.8c12.1,1.7,23.4,3.3,35.4,5c1-4.7,1.9-8.8,2.9-13.1
			c-10.2-1.7-19.5-3.3-28.9-4.7C459.4,586.6,457.6,587,457.1,587.8z"/>
		<path class="st11" d="M352.8,644.7c8,1.8,15.2,3.5,22.6,5.2c2.4-6.7,4.7-12.9,7.1-19.8c-5.2-2.1-9.7-3.9-14.3-5.8
			C363,631.2,358,637.7,352.8,644.7z"/>
		<path class="st11" d="M372.6,358.3c-3.2,1.8-5.9,3.3-8.6,4.9c-8.2,4.7-8.3,4.7-5.9,13.9c0.5,1.9,1.4,4.8,2.7,5.3
			c6.2,2.1,12.7,3.4,19.7,5.2c-0.4-1.9-0.5-3-0.8-4C377.4,375.3,375.1,367,372.6,358.3z"/>
		<path class="st11" d="M266,442.3c-1.5,3.5-2.6,7.2-3.7,10.9c-0.3,1-0.1,2.7,0.5,3.1c5.7,4.1,11.6,8.1,17.9,12.4
			c1.4-9.4,2.7-17.7,4-26.6c-5.4-0.7-10.5-1.5-15.6-1.9C268.1,440.1,266.4,441.3,266,442.3z"/>
		<path class="st11" d="M316,646.8c-1.5,2.9-2.5,6-3.7,9.3c8.9,3.4,17.2,6.6,26.1,10c2.1-5.3,3.9-10,5.9-15.1
			c-8.7-2.1-16.7-4.1-24.9-5.8C318.4,645,316.5,645.9,316,646.8z"/>
		<path class="st11" d="M419.8,621.6c-2.2-4.6-4.5-9.3-6.8-13.9c-1.5-3.1-11.6-3.9-13-0.8c-2.8,6.2-4.8,12.8-7.5,19.9
			c9.8-1.3,18.4-2.4,27.4-3.6C419.8,622.3,419.9,621.9,419.8,621.6z"/>
		<path class="st11" d="M490.7,605.3c10,1.4,19.4,2.8,29.1,4.1c0.6-4.4,1.1-8.1,1.7-12.4c-9.4-1.6-18.5-3.1-28-4.7
			C492.6,596.7,491.7,600.7,490.7,605.3z"/>
		<path class="st11" d="M367.9,617.9c5.3-6.9,10-13.1,15.3-20.1c-9.2-5.8-19-2.3-29.6-4.3C358.8,602.3,363.2,609.8,367.9,617.9z"/>
		<path class="st11" d="M441.4,403.1c4.9,1.2,9,2.3,13.8,3.5c2.4-7.6,4.7-14.6,7-21.9c-5.1-1.7-9.6-3.2-14.6-4.9
			C445.6,387.8,443.5,395.3,441.4,403.1z"/>
		<path class="st11" d="M451.5,655.4c1.9,3.8,3.6,7.3,5.5,11.1c6.7-3.1,13.2-6.6,19.4-10.5c-0.6-2.4-1.3-4.8-1.9-7.3
			C466.7,651,459.3,653.1,451.5,655.4z"/>
		<path class="st11" d="M317.7,557.6c2.2-3,3.9-6.4,5.9-9.8c-6.7-3.2-12.8-6.1-19.4-9.3c-2.9,5.4-5.6,10.5-8.6,16.1
			c6.6,1.5,12.4,2.9,18.3,4C315.1,558.9,317.1,558.5,317.7,557.6z"/>
		<path class="st11" d="M371,620.7c4.5,1.9,8.6,3.5,13.1,5.4c2.8-7.7,5.4-14.9,8-22.1c-2.2-1.1-3.8-1.9-6.1-3.1
			C381,607.6,376.1,614,371,620.7z"/>
		<path class="st11" d="M371.3,571.1c-4.1-3.1-9.3-4.8-14.5-7.3c-1,5.8-1.9,11-2.9,16.7c6.9,0,13,0,19.9,0
			C372.9,576.9,373.2,572.6,371.3,571.1z"/>
		<path class="st11" d="M380,307c-0.8,0-1.6,0-2.5,0c-4.5,0-9,0.2-13.4,0.5c1.9,2.3,3.6,4.5,5.4,6.7C373,311.8,376.5,309.4,380,307z
			"/>
		<path class="st11" d="M346.6,329.6c6.4-4.3,12.8-8.6,19.3-13c-2.3-3-4.4-5.6-6.8-8.6c-3.2,2.3-6.1,4.2-8.9,6.2
			c-7.3,5.4-7.3,5.4-4.3,14.2C346,328.7,346.2,328.9,346.6,329.6z"/>
	</g>
</g>
<g id="Layer_2">
</g>
</svg>
