<?xml version="1.0" encoding="utf-8"?>
<!-- Generator: Adobe Illustrator 22.0.1, SVG Export Plug-In . SVG Version: 6.00 Build 0)  -->
<svg version="1.1" xmlns="http://www.w3.org/2000/svg" xmlns:xlink="http://www.w3.org/1999/xlink" x="0px" y="0px"
	 viewBox="0 0 750 1334" style="enable-background:new 0 0 750 1334;" xml:space="preserve">
<style type="text/css">
	.st0{fill:#2B7A7B;}
	.st1{fill:#17252A;stroke:#DEF2F1;stroke-width:2;}
	.st2{fill:#17252A;}
	.st3{fill:#2B7A7B;stroke:#DEF2F1;stroke-width:2;}
	.st4{fill:#363A3A;}
	.st5{fill:#981F32;}
	.st6{fill:#DEF2F1;}
	.st7{fill:#2B7A7B;stroke:#FFFFFF;}
	.st8{fill:#3AAFA9;}
	.st9{fill:#FEFFFF;}
	.st10{fill:#4D4D4D;}
	.st11{fill:#2B7A7B;stroke:#000000;stroke-width:1.5;}
	.st12{fill:none;stroke:#000000;stroke-width:4;stroke-miterlimit:10;}
	.st13{fill:#2B7A7B;stroke:#2B7A7B;stroke-width:0.25;stroke-miterlimit:10;}
	.st14{fill:none;stroke:#2B7A7B;stroke-miterlimit:10;}
</style>
<g id="Layer_1">
	<g>
		<circle class="st13" cx="379" cy="557" r="156"/>
		<g>
			<path class="st12" d="M232.5,504.3c13.7,14.4,27.3,28.9,41,43.4c0.9,0.9,1.7,2.4,1.7,3.6c0.1,19.5,0.1,38.9,0,58.4
				c0,4.1-2.2,7-6,8.6c-1.6,0.7-3.3,1.2-5,1.8c-3.9,1.4-7.8,2.9-11.8,4.3c0,0.1,0.1,0.3,0.1,0.4c17.6,0,35.1,0,52.7,0
				c0-0.2,0-0.3,0-0.5c-5.1-1.8-10.3-3.7-15.4-5.5c-5.2-1.9-7.2-4.9-7.2-10.4c0-18.7,0-37.3,0-56c0-2,0.6-3.5,2-5
				c12.5-13.1,24.9-26.3,37.4-39.5c5.6-5.9,11.2-11.8,17-18c-33.6,0-66.9,0-100.4,0L232.5,504.3z"/>
		</g>
		<path class="st14" d="M534,575.9c0.7-5.9,1-11.9,1-17.9s-0.4-12-1-17.9v35.7V575.9z"/>
		<path d="M534,575.8v-35.7c-1.6-14.1-5.1-27.7-10.3-40.4l-92.4,14.3v108.6c-4.2,0-9.6,0.2-20.1,0.6c-19.6,0.7-24.2,10.1-24.2,19
			c0,11.5,6.2,20.1,28.9,19.1c24.4-1.1,23.2-22.6,23.2-38v-73.9l87.6-14.7v73.8c-4.1,0-9.1,0.2-19.4,0.6
			c-19.4,0.7-23.9,9.9-23.9,18.8c0,10.6,5.2,18.6,24,18.9c14.3-20.6,23.7-44.7,26.7-70.8V575.8z"/>
		<g>
			<g>
				<path class="st0" d="M389.5,592c-9-8.4-19.8-13.3-31-18.1l-11.3-4.8h73.4l-29.6,24.4L389.5,592z"/>
				<path d="M413.7,571.6c-7.4,6.1-14.9,12.3-22.5,18.6c-9-8.4-19.7-13.5-31.7-18.6C378.3,571.6,396.1,571.6,413.7,571.6
					 M427.7,566.6h-13.9h-54.2H335l22.5,9.6c11,4.7,21.6,9.6,30.2,17.6l3.2,3l3.4-2.8l7.4-6.1l15.1-12.5L427.7,566.6L427.7,566.6z"
					/>
			</g>
			<g>
				<path class="st0" d="M437.8,566.4c-0.4,0-0.7,0-1.1-0.1c-0.2,0-0.5,0-0.7,0l-122.3,0c-0.2,0-0.3,0-0.5,0c-0.3,0-0.6,0.1-1,0.1
					c-0.9,0-1.7-0.2-2.3-0.6c-1-0.7-1.9-1.6-2.6-2.4c-0.3-0.3-0.5-0.6-0.8-0.8l-1.9-1.9l2.1-1.8c0.3-0.3,0.6-0.5,0.9-0.8
					c0.8-0.8,1.7-1.6,2.8-2.2c0.6-0.4,1.3-0.6,2.2-0.6c0.3,0,0.7,0,1,0.1c0.2,0,0.4,0,0.5,0l61.5,0c13.8,0,27.5,0,41.3,0l18.8,0
					c0.3,0,0.6,0,0.8,0c0.4,0,0.8-0.1,1.2-0.1c1,0,1.8,0.2,2.5,0.5c0.7,0.3,4.1,2.1,4.1,4.9c0.1,2.5-2.7,4.4-3.8,5.1
					C439.6,566.2,438.8,566.4,437.8,566.4L437.8,566.4z"/>
				<path d="M437.5,557.8c0.5,0,1,0.1,1.4,0.3c1.2,0.6,2.7,1.8,2.7,2.7c0,1-1.5,2.2-2.6,2.9c-0.3,0.2-0.8,0.3-1.3,0.3
					c-0.6,0-1.2-0.1-1.8-0.1c0,0,0,0,0,0l-122.3,0c0,0,0,0,0,0c-0.5,0-1,0.1-1.5,0.1c-0.4,0-0.7,0-0.9-0.2c-1.2-0.8-2.1-1.9-3.1-2.9
					c1.1-0.9,2.1-2,3.3-2.8c0.2-0.1,0.5-0.2,0.9-0.2c0.5,0,1,0.1,1.5,0.1c0,0,0,0,0,0c13.9,0,27.7,0,41.6,0c6.6,0,13.3,0,19.9,0
					c20,0,40.1,0,60.1,0c0,0,0,0,0,0C436.1,557.9,436.9,557.8,437.5,557.8 M437.5,552.8c-0.5,0-1,0-1.4,0.1c-0.3,0-0.5,0-0.7,0
					l-17.1,0c-14.3,0-28.7,0-43,0h-10l-10,0l-41.6,0c-0.1,0-0.2,0-0.3,0c-0.3,0-0.7-0.1-1.2-0.1c-1.3,0-2.5,0.3-3.5,0.9
					c-1.3,0.8-2.3,1.7-3.2,2.5c-0.3,0.3-0.5,0.5-0.8,0.7l-4.1,3.6l3.9,3.8c0.3,0.3,0.5,0.5,0.8,0.8c0.8,0.9,1.8,1.9,3,2.7
					c1.1,0.7,2.3,1.1,3.7,1.1c0.4,0,0.8,0,1.2-0.1c0.1,0,0.2,0,0.3,0l122.3,0c0.2,0,0.4,0,0.5,0c0.4,0,0.8,0.1,1.3,0.1
					c1.5,0,2.7-0.3,3.8-1c1.9-1.1,5.2-3.6,5.1-7.3c-0.1-4.1-4.3-6.5-5.5-7.1C440,553,438.9,552.8,437.5,552.8L437.5,552.8z"/>
			</g>
			<g>
				<path class="st0" d="M424.9,587.4c-2.5,0-5,0-7.6,0c-2.7,0-5.4,0-8.3,0h-7l5.5-4.4c8.4-6.9,15.6-11.1,23.3-13.6
					c1-0.3,2.1-0.5,3.2-0.5c1.8,0,3.9,0.4,5.8,1.1c4,1.5,5.9,5.4,5,10c-0.9,4.4-4.1,7.3-8.4,7.3
					C433.1,587.4,429.5,587.4,424.9,587.4z"/>
				<path d="M434.1,571.3c1.7,0,3.4,0.4,4.9,1c3,1.2,4,4.1,3.4,7.2c-0.6,3.2-2.8,5.3-6,5.3c-3.8,0.1-7.6,0.1-11.4,0.1
					c-5.1,0-10.3,0-15.9,0c7.4-6,14.5-10.5,22.5-13.2C432.4,571.4,433.2,571.3,434.1,571.3 M434.1,566.3c-1.5,0-2.8,0.2-4,0.6
					c-8,2.7-15.4,7-24.1,14.1l-10.9,8.9h14.1c2.8,0,5.6,0,8.3,0c2.6,0,5.1,0,7.6,0c4.6,0,8.1,0,11.5-0.1c5.5-0.1,9.7-3.8,10.8-9.4
					c1.1-5.8-1.4-10.9-6.5-12.8C438.6,566.8,436.2,566.3,434.1,566.3L434.1,566.3z"/>
			</g>
			<g>
				<path class="st0" d="M323.2,587.5c-2.8,0-5.6,0-8.3,0c-5.8-0.1-9.7-3.7-9.8-9c-0.1-5.2,3.6-9,9.5-9.7c2.5-0.3,5.1-0.4,7.6-0.4
					c17.8,0,33.8,6.6,47.2,13.1c0.5,0.2,0.8,0.5,1.2,0.9c0.2,0.2,0.4,0.4,0.8,0.7l5.1,4.4l-41.8,0c-1.9,0-3.8,0-5.7,0
					C327,587.4,325.1,587.5,323.2,587.5z"/>
				<path d="M322.2,570.8c16.4,0,31.4,5.7,46.1,12.9c0.3,0.1,0.5,0.4,1.5,1.2c-7.3,0-14.3,0-21.2,0c-4.7,0-9.3,0-13.9,0
					c0,0-0.1,0-0.1,0c-3.8,0-7.6,0-11.4,0c-2.8,0-5.5,0-8.3,0c-4.5-0.1-7.3-2.7-7.4-6.6c-0.1-4.1,2.8-6.6,7.3-7.1
					C317.3,570.9,319.7,570.8,322.2,570.8 M322.2,565.8c-2.6,0-5.3,0.1-7.9,0.4c-7.2,0.8-11.9,5.7-11.8,12.2
					c0.2,6.7,5.2,11.4,12.3,11.5c2.5,0,5.1,0,8.4,0c1.9,0,3.8,0,5.7,0c1.9,0,3.8,0,5.7,0h0.1l13.9,0l10.3,0l10.9,0h13.5l-10.2-8.8
					c-0.3-0.3-0.6-0.5-0.7-0.6c-0.4-0.4-1-0.9-1.8-1.3C356.8,572.6,340.4,565.8,322.2,565.8L322.2,565.8z"/>
			</g>
			<g>
				<path class="st0" d="M390.7,552.9l-51,0c-8.4,0-16.7,0-25.1,0c-6,0-10.7-1.9-13.5-5.5c-2.9-3.6-3.7-8.7-2.4-14.6
					c2.1-9.5,7.9-17.2,18.2-24.2c11.2-7.7,24.2-12.4,39.9-14.5c6.6-0.9,13.1-1.3,19.3-1.3c15.8,0,30.7,3,44.4,8.8
					c9.5,4,16.8,9,22.5,15.3c5.7,6.3,8.7,12.7,9.1,19.8c0.3,4.8-1,8.9-3.8,11.8c-2.7,2.9-6.8,4.5-11.6,4.5c-6.4,0-12.8,0-19.2,0
					C412.9,552.9,395.1,552.9,390.7,552.9z M405.3,523.7c0.2,0.3,0.5,0.8,0.8,1.2c0.5-0.6,1-1.3,1.1-1.6c0-0.2,0-0.4-0.1-0.5
					c-0.1-0.1-0.2-0.2-0.4-0.2c-0.1,0-0.1,0-0.2,0C406.2,522.7,405.6,523.3,405.3,523.7z M343.1,523.7c0.2,0.3,0.5,0.6,0.8,0.8
					c0.3-0.2,0.6-0.5,0.8-0.8c-0.2-0.3-0.5-0.7-0.8-1.1C343.6,523,343.2,523.4,343.1,523.7z M373.8,513.4c0.6,0.5,1.3,1,1.6,1.1
					c0.1,0,0.1,0,0.2,0c0.1,0,0.3,0,0.4-0.1c0.1-0.1,0.1-0.3,0.1-0.5c-0.1-0.3-0.7-1-1.1-1.3C374.6,512.8,374.2,513.1,373.8,513.4z"
					/>
				<path d="M375.9,495.2c14.8,0,29.3,2.6,43.4,8.6c8.2,3.5,15.6,8.1,21.7,14.7c4.7,5.2,8,11.1,8.4,18.2c0.5,8.4-4.5,13.6-12.9,13.7
					c-6.4,0-12.8,0-19.1,0c-8.8,0-17.6,0-26.5,0c-0.1,0-0.2,0-0.3,0c-1.7,0-3.5,0-5.2,0c-3.5,0-6.9,0-10.4,0c-0.2,0-0.4,0-0.6,0
					c-11.6,0-23.1,0-34.7,0c-8.4,0-16.7,0-25.1,0c-10.6,0-15.9-6.6-13.5-17.1c2.3-10.2,8.9-17.1,17.2-22.7
					c11.7-8,24.9-12.2,38.8-14.1C363.3,495.7,369.6,495.2,375.9,495.2 M375.6,517c2,0,3.3-1.7,2.8-3.7c-0.3-1.4-2.1-3.2-3.4-3.3
					c0,0-0.1,0-0.1,0c-1.3,0-2.8,1.7-4.2,2.6c0,0.6,0,1.1,0,1.7c1.4,0.9,2.7,2.5,4.3,2.7C375.3,517,375.5,517,375.6,517
					 M343.8,527.1c1.2,0,3.3-2,3.4-3.2c0.1-1.4-1.6-2.9-2.6-4.4c-0.5,0-1,0-1.5,0c-1,1.5-2.7,2.9-2.7,4.3
					C340.5,525.1,342.6,527.1,343.8,527.1C343.8,527.1,343.8,527.1,343.8,527.1 M406.9,528c1-1.4,2.5-2.8,2.8-4.3
					c0.4-2.1-1.1-3.6-2.9-3.6c-0.2,0-0.4,0-0.6,0.1c-1.4,0.3-3.3,2.2-3.4,3.4c-0.1,1.4,1.6,2.9,2.6,4.4
					C405.8,528,406.3,528,406.9,528 M375.9,490.2c-6.3,0-12.9,0.5-19.6,1.4c-16,2.2-29.4,7-40.9,14.9c-6.8,4.7-16.2,12.4-19.2,25.7
					c-1.9,8.4,0.5,13.7,2.9,16.7c2.4,2.9,7,6.5,15.5,6.5c8.4,0,16.7,0,25.1,0l17.4,0l17.4,0h0.6h5.2l5.2,0l5.2,0h0.3
					c4.4,0,8.8,0,13.2,0c4.4,0,8.8,0,13.2,0c7.5,0,13.5,0,19.2,0c5.5,0,10.2-1.8,13.4-5.3c3.2-3.4,4.8-8.2,4.5-13.7
					c-0.4-7.6-3.6-14.6-9.7-21.3c-6-6.5-13.6-11.8-23.4-15.9C407.3,493.3,392,490.2,375.9,490.2L375.9,490.2z"/>
			</g>
			<g>
				<path class="st0" d="M339.6,610.8c-9.5,0-19,0-28.5,0c-4.1,0-7.4-1.2-9.7-3.5c-2.3-2.3-3.4-5.6-3.4-9.8c0.1-4.2,2.4-6.8,6.5-7.3
					c2.5-0.3,4.6-0.4,6.5-0.4l5.4,0c4.8,0,9.7,0,14.5,0c4.8,0,9.7,0,14.5,0c8.5,0,19.8,0,31.2-0.2l0.3,0c5.2,0,9,1.8,12.4,5.7
					c1.6,1.9,2.2,2.1,2.3,2.1c0,0,0.6-0.2,2.1-2.1c3.3-4,7.1-5.8,12.5-5.8c0.3,0,0.6,0,0.9,0c3.9,0.1,8.1,0.2,13.3,0.2
					c3,0,6.1,0,9.1,0l1,0c2,0,4,0,6,0l3.3,0c0.7,0,1.6,0,2.4,0.1c5,0.3,9.5,1.2,9.7,7.7c0.2,6.8-3.9,12.3-9.7,13.1
					c-1.4,0.2-2.7,0.2-4.1,0.2L339.6,610.8z"/>
				<path d="M377,592.2c4.5,0,7.7,1.5,10.5,4.8c1.7,2,2.9,3,4.2,3c1.2,0,2.4-1,4.1-3c2.9-3.6,6.2-4.9,10.6-4.9c0.3,0,0.5,0,0.8,0
					c4.5,0.1,8.9,0.2,13.4,0.2c3.2,0,6.3,0,9.5,0c2.2,0,4.4,0,6.6,0c0.7,0,1.5,0,2.2,0c0.1,0,0.1,0,0.2,0c0,0,0,0,0,0
					c0.3,0,0.5,0,0.8,0c0.8,0,1.5,0,2.3,0.1c5.8,0.4,7.3,1.5,7.3,5.2c0.1,5.5-3,10-7.5,10.5c-1.2,0.2-2.5,0.2-3.7,0.2
					c-0.2,0-0.4,0-0.7,0c0,0-0.1,0-0.1,0c-0.3,0-0.6,0-0.9,0c-2.2,0-4.4,0-6.6,0c-10.2,0-20.3,0-30.5,0c-8.3,0-16.6,0-24.8,0
					c-1.3,0-2.7,0-4,0c-10.3,0-20.5,0-30.8,0c-9.6,0-19.1,0-28.7,0c-7,0-10.7-3.9-10.6-10.8c0-3,1.5-4.5,4.3-4.8
					c2.1-0.2,4.1-0.4,6.2-0.4c1.8,0,3.5,0,5.3,0c9.7,0,19.4,0,29.1,0c10.4,0,20.8,0,31.2-0.2C376.8,592.2,376.9,592.2,377,592.2
					 M377,587.2L377,587.2l-0.3,0c-11.4,0.1-22.6,0.2-31.1,0.2c-4.8,0-9.7,0-14.5,0c-4.8,0-9.7,0-14.5,0c-1.8,0-3.6,0-5.3,0
					c-2,0-4.2,0.1-6.8,0.4c-5.4,0.6-8.7,4.2-8.8,9.7c-0.1,6,2.2,9.6,4.1,11.6c1.9,1.9,5.4,4.3,11.4,4.3c9.6,0,19.1,0,28.7,0l15.4,0
					l15.4,0l4,0l12.4,0l12.4,0c10.2,0,20.3,0,30.5,0l6.6,0l0.9,0l0.1-5v5l0.3,0l0.3,0c1.4,0,2.9,0,4.4-0.2
					c7.1-0.9,12.1-7.5,11.9-15.6c-0.2-9.3-8.2-9.8-12-10.1c-0.9-0.1-1.9-0.1-2.6-0.1l-0.4,0l-0.4,0l-0.2,0c-0.8,0-1.5,0-2.3,0
					c-2.2,0-4.4,0-6.6,0l-0.3,0c-3,0-6.1,0-9.1,0c-5.2,0-9.4-0.1-13.3-0.2c-0.3,0-0.6,0-1,0c-6.1,0-10.7,2.1-14.5,6.7
					c-0.1,0.1-0.1,0.2-0.2,0.3c-0.1-0.1-0.2-0.2-0.3-0.4C387.5,589.3,382.9,587.2,377,587.2L377,587.2z"/>
			</g>
		</g>
	</g>
</g>
<g id="Layer_2">
</g>
<g id="Layer_3">
</g>
</svg>
