<?xml version="1.0" encoding="utf-8"?>
<!-- Generator: Adobe Illustrator 22.0.1, SVG Export Plug-In . SVG Version: 6.00 Build 0)  -->
<svg version="1.1" xmlns="http://www.w3.org/2000/svg" xmlns:xlink="http://www.w3.org/1999/xlink" x="0px" y="0px"
	 viewBox="0 0 750 1334" style="enable-background:new 0 0 750 1334;" xml:space="preserve">
<style type="text/css">
	.st0{fill:#2B7A7B;}
	.st1{fill:#17252A;stroke:#DEF2F1;stroke-width:2;}
	.st2{fill:#17252A;}
	.st3{fill:#2B7A7B;stroke:#DEF2F1;stroke-width:2;}
	.st4{fill:#363A3A;}
	.st5{fill:#981F32;}
	.st6{fill:#DEF2F1;}
	.st7{fill:#3AAFA9;}
	.st8{fill:#FEFFFF;}
</style>
<g id="Layer_1">
	<rect x="31" y="301" class="st0" width="368" height="106"/>
	<path class="st1" d="M241.6,349.3l-17.3-6.2c3.1-8.7,7.9-14.6,14.3-17.6c6.5-3,14.1-3,22.8,0.2c4,1.4,7.4,3.2,10.4,5.4
		c3,2.2,5.3,4.6,6.8,7.2c1.5,2.6,2.5,5.4,2.8,8.4c0.4,3-0.1,6.2-1.3,9.6c-1,2.7-2.2,4.9-3.9,6.7c-1.6,1.8-3.6,3.2-5.8,4.4
		c-2.3,1.2-6.3,2.4-12.1,3.8c-1,0.2-7.4,1.5-19.2,3.9l30.3,10.8l-5.6,15.7l-55-19.5c1.1-3.2,2.5-5.8,4.2-8c1.7-2.2,3.7-4.1,6.1-5.6
		c2.4-1.5,5.7-3.1,10.1-4.6c3.3-1.2,8.2-2.6,14.8-4.2c6.5-1.6,10.7-3.1,12.6-4.4c1.9-1.3,3.1-2.9,3.8-4.9c0.8-2.2,0.7-4.2-0.2-6.1
		c-0.9-1.8-2.6-3.2-5.1-4.1c-2.2-0.8-4.2-0.9-6.1-0.2c-1.9,0.6-3.4,1.8-4.7,3.5C243.6,344.6,242.6,346.6,241.6,349.3z"/>
	<path class="st2" d="M263.6,181H84.4c-14,0-25.4-11.4-25.4-25.4V88.4C59,74.4,70.4,63,84.4,63h179.2c14,0,25.4,11.4,25.4,25.4v67.2
		C289,169.6,277.6,181,263.6,181z"/>
	<path class="st3" d="M176.8,121l-17.8-4.5c2.3-9,6.5-15.2,12.6-18.9c6.1-3.6,13.7-4.3,22.8-2c4.1,1,7.7,2.5,10.9,4.4
		c3.2,1.9,5.7,4,7.5,6.5c1.8,2.4,3,5.1,3.6,8.1c0.6,3,0.5,6.2-0.3,9.7c-0.7,2.8-1.8,5.1-3.2,7c-1.4,1.9-3.2,3.6-5.4,4.9
		c-2.1,1.4-6,3-11.7,4.9c-1,0.3-7.2,2.2-18.7,5.7l31.2,7.9l-4.1,16.1l-56.6-14.3c0.8-3.3,2-6,3.4-8.4c1.5-2.3,3.3-4.4,5.6-6.1
		c2.2-1.8,5.4-3.6,9.6-5.5c3.2-1.5,8-3.3,14.3-5.6c6.3-2.2,10.4-4.1,12.1-5.5c1.7-1.4,2.8-3.2,3.4-5.2c0.6-2.3,0.3-4.3-0.8-6
		c-1.1-1.8-2.9-3-5.5-3.6c-2.2-0.6-4.3-0.5-6.1,0.3c-1.8,0.8-3.3,2.1-4.4,3.9C178.3,116.1,177.5,118.2,176.8,121z"/>
	<path class="st2" d="M43.1,314h22l7.8,43.9l8.8-43.9h19.2l8.7,43.9l8-43.9h22.4l-17.5,70.8h-23l-7.9-41.1L83,384.8H60.2L43.1,314z"
		/>
	<path class="st6" d="M135.7,335.2h16.2v30.6c0,2,0.2,3.6,0.7,4.6c0.5,1,1.4,1.9,2.6,2.5c1.3,0.6,2.7,1,4.4,1c2.4,0,4.2-0.6,5.6-1.9
		c1.3-1.3,2-3.3,2-6.2v-30.6h16.2v29c0,3.6-0.3,6.5-0.9,8.6c-0.6,2.1-1.5,4-2.8,5.6c-1.3,1.6-2.9,3-4.8,4.2
		c-1.9,1.2-4.1,2.1-6.7,2.7s-5.3,0.9-8.4,0.9c-3.5,0-6.6-0.3-9.1-0.9c-2.6-0.6-4.8-1.5-6.7-2.7c-1.9-1.2-3.5-2.6-4.7-4.2
		s-2.3-3.8-3-6.4c-0.5-1.7-0.7-4.3-0.7-7.9V335.2z"/>
	<path class="st6" d="M183.3,335.2h45.5v13.1h-14.7v36.5H198v-36.5h-14.7V335.2z"/>
	<path class="st2" d="M267.7,384.8V314H300c7.3,0,13.6,1.1,18.8,3.4s9.4,6.2,12.4,11.6c3,5.4,4.5,12.1,4.5,19.9
		c0,5.3-0.7,10-2.1,14.2c-1.4,4.2-3,7.6-5,10.3c-2,2.7-4.1,4.8-6.5,6.3c-2.3,1.5-5.4,2.8-9.1,3.8c-3.7,1-8.3,1.4-13.7,1.4H267.7z
		 M290.4,367.2l5.9,0c4.3,0,7.6-0.6,9.8-1.9c2.2-1.2,3.9-3.3,5.1-6.1c1.2-2.8,1.8-6.3,1.8-10.4c0-2.5-0.3-4.9-0.8-7.2
		c-0.6-2.3-1.3-4.1-2.4-5.6c-1-1.4-2.3-2.5-3.7-3.1c-2.1-0.9-5.2-1.4-9.5-1.4h-6.1V367.2z"/>
	<path class="st6" d="M361.1,386.1c-7.9,0-14.3-2.4-19-7.2c-4.7-4.8-7.1-11.1-7.1-19c0-3.8,0.5-7.2,1.6-10.2s2.6-5.5,4.4-7.6
		c1.9-2.1,3.8-3.6,5.8-4.8c2-1.1,4.2-2,6.5-2.6c2.4-0.6,4.8-0.9,7.4-0.9c4.9,0,9.4,1,13.5,3.1c4.1,2.1,7.3,5,9.4,8.9
		c2.2,3.9,3.3,8.4,3.3,13.5c0,5-1,9.4-2.9,13.4c-1.9,4-4.8,7.2-8.7,9.6C371.5,384.9,366.7,386.1,361.1,386.1z M360.9,373.9
		c1.8,0,3.5-0.5,5.1-1.4c1.5-0.9,2.7-2.5,3.7-4.6c0.9-2.2,1.4-4.8,1.4-7.9c0-2.2-0.2-4.2-0.7-6c-0.4-1.7-1-3.1-1.8-4.2
		c-0.8-1.1-1.8-2-3-2.7c-1.3-0.7-2.7-1.1-4.3-1.1c-1.8,0-3.5,0.5-5,1.5c-1.6,1-2.8,2.6-3.7,4.7c-0.9,2.1-1.4,4.7-1.4,7.8
		c0,4.6,1.1,8.3,3.2,10.9C355.9,372.9,358.1,373.9,360.9,373.9z"/>
	<path class="st3" d="M73.1,87h22l7.8,43.9l8.8-43.9h19.2l8.7,43.9l8-43.9h22.4l-17.5,70.8h-23l-7.9-41.1l-8.4,41.1H90.2L73.1,87z"
		/>
	<path class="st3" d="M207.7,157.8V87H240c7.3,0,13.6,1.1,18.8,3.4s9.4,6.2,12.4,11.6c3,5.4,4.5,12.1,4.5,19.9
		c0,5.3-0.7,10-2.1,14.2c-1.4,4.2-3,7.6-5,10.3c-2,2.7-4.1,4.8-6.5,6.3c-2.3,1.5-5.4,2.8-9.1,3.8c-3.7,1-8.3,1.4-13.7,1.4H207.7z
		 M230.4,140.2l5.9,0c4.3,0,7.6-0.6,9.8-1.9c2.2-1.2,3.9-3.3,5.1-6.1c1.2-2.8,1.8-6.3,1.8-10.4c0-2.5-0.3-4.9-0.8-7.2
		c-0.6-2.3-1.3-4.1-2.4-5.6c-1-1.4-2.3-2.5-3.7-3.1c-2.1-0.9-5.2-1.4-9.5-1.4h-6.1V140.2z"/>
</g>
<g id="Layer_2">
</g>
</svg>
