<?xml version="1.0" encoding="utf-8"?>
<!-- Generator: Adobe Illustrator 22.0.1, SVG Export Plug-In . SVG Version: 6.00 Build 0)  -->
<svg version="1.1" xmlns="http://www.w3.org/2000/svg" xmlns:xlink="http://www.w3.org/1999/xlink" x="0px" y="0px"
	 viewBox="0 0 750 1334" style="enable-background:new 0 0 750 1334;" xml:space="preserve">
<style type="text/css">
	.st0{fill:#2B7A7B;}
	.st1{fill:#17252A;stroke:#DEF2F1;stroke-width:2;}
	.st2{fill:#17252A;}
	.st3{fill:#2B7A7B;stroke:#DEF2F1;stroke-width:2;}
	.st4{fill:#363A3A;}
	.st5{fill:#981F32;}
	.st6{fill:#DEF2F1;}
	.st7{fill:#2B7A7B;stroke:#FFFFFF;}
	.st8{fill:#3AAFA9;}
	.st9{fill:#FEFFFF;}
	.st10{fill:#4D4D4D;}
	.st11{fill:none;stroke:#000000;stroke-width:4;stroke-miterlimit:10;}
	.st12{fill:#2B7A7B;stroke:#000000;stroke-width:3;stroke-miterlimit:10;}
	.st13{fill:#2B7A7B;stroke:#2B7A7B;stroke-width:0.25;stroke-miterlimit:10;}
	.st14{fill:none;stroke:#2B7A7B;stroke-miterlimit:10;}
	.st15{fill:none;stroke:#000000;stroke-width:3;}
	.st16{fill:#2B7A7B;stroke:#000000;stroke-width:1.5;}
</style>
<g id="Layer_1">
	<circle class="st12" cx="387" cy="343" r="156"/>
	<g>
		<path class="st11" d="M424.1,444.3c-24.4,0-48.9,0-73.3,0c-0.1-0.2-0.1-0.4-0.2-0.5c5.5-2,10.9-4,16.4-6c2.3-0.8,4.7-1.5,6.9-2.5
			c5.3-2.2,8.3-6.3,8.3-12c0.1-27.1,0.1-54.2-0.1-81.2c0-1.7-1.1-3.8-2.4-5.1c-20.4-21.7-40.9-43.3-61.3-64.9
			c-4.7-5-9.4-10-14.6-15.4c55.9,0,111.2,0,167.1,0c-8.2,8.6-15.9,16.9-23.7,25.1c-17.3,18.3-34.7,36.7-52,54.9
			c-1.9,2-2.7,4.1-2.7,6.9c0.1,26,0.1,51.9,0.1,77.9c0,7.7,2.8,11.9,10,14.5c7.1,2.6,14.3,5.1,21.5,7.7
			C424.1,443.9,424.1,444.1,424.1,444.3z"/>
	</g>
</g>
<g id="Layer_2">
</g>
<g id="Layer_3">
</g>
</svg>
