<?xml version="1.0" encoding="utf-8"?>
<!-- Generator: Adobe Illustrator 22.0.1, SVG Export Plug-In . SVG Version: 6.00 Build 0)  -->
<svg version="1.1" xmlns="http://www.w3.org/2000/svg" xmlns:xlink="http://www.w3.org/1999/xlink" x="0px" y="0px"
	 viewBox="0 0 750 1334" style="enable-background:new 0 0 750 1334;" xml:space="preserve">
<style type="text/css">
	.st0{fill:#2B7A7B;stroke:#000000;stroke-width:3;stroke-miterlimit:10;}
	.st1{fill:#2B7A7B;}
	.st2{fill:#17252A;stroke:#DEF2F1;stroke-width:2;}
	.st3{fill:#17252A;}
	.st4{fill:#2B7A7B;stroke:#DEF2F1;stroke-width:2;}
	.st5{fill:#363A3A;}
	.st6{fill:#981F32;}
	.st7{fill:#DEF2F1;}
	.st8{fill:#2B7A7B;stroke:#FFFFFF;}
	.st9{fill:#3AAFA9;}
	.st10{fill:#FEFFFF;}
	.st11{fill:#4D4D4D;}
	.st12{fill:none;stroke:#000000;stroke-width:4;stroke-miterlimit:10;}
	.st13{fill:#2B7A7B;stroke:#2B7A7B;stroke-width:0.25;stroke-miterlimit:10;}
	.st14{fill:none;stroke:#2B7A7B;stroke-miterlimit:10;}
	.st15{fill:none;stroke:#000000;stroke-width:3;}
	.st16{fill:#2B7A7B;stroke:#000000;stroke-width:1.5;}
</style>
<g id="Layer_1">
	<circle class="st0" cx="387.5" cy="343.5" r="156"/>
	<g>
		<path d="M458,376.3V250.6l-116.3,18v123c-4.7,0-10.9,0.2-22.7,0.7c-22.2,0.8-27.4,11.4-27.4,21.6c0,13,7,22.7,32.7,21.6
			c27.6-1.2,26.3-25.6,26.3-43.1v-83.7l99.2-16.6v83.5c-4.6,0-10.3,0.2-22,0.7c-22,0.8-27.1,11.2-27.1,21.3
			c0,12.8,6.7,22.4,32.1,21.4C460,417.7,458,393.6,458,376.3z"/>
	</g>
</g>
<g id="Layer_2">
</g>
<g id="Layer_3">
</g>
</svg>
