<?xml version="1.0" encoding="utf-8"?>
<!-- Generator: Adobe Illustrator 22.0.1, SVG Export Plug-In . SVG Version: 6.00 Build 0)  -->
<svg version="1.1" xmlns="http://www.w3.org/2000/svg" xmlns:xlink="http://www.w3.org/1999/xlink" x="0px" y="0px"
	 viewBox="0 0 750 1334" style="enable-background:new 0 0 750 1334;" xml:space="preserve">
<style type="text/css">
	.st0{fill:#2B7A7B;}
	.st1{fill:#17252A;stroke:#DEF2F1;stroke-width:2;}
	.st2{fill:#17252A;}
	.st3{fill:#2B7A7B;stroke:#DEF2F1;stroke-width:2;}
	.st4{fill:#363A3A;}
	.st5{fill:#981F32;}
	.st6{fill:#DEF2F1;}
	.st7{fill:#2B7A7B;stroke:#FFFFFF;}
	.st8{fill:#3AAFA9;}
	.st9{fill:#FEFFFF;}
	.st10{fill:#4D4D4D;}
	.st11{fill:none;stroke:#000000;stroke-width:4;stroke-miterlimit:10;}
	.st12{fill:#2B7A7B;stroke:#2B7A7B;stroke-width:0.25;stroke-miterlimit:10;}
	.st13{fill:none;stroke:#2B7A7B;stroke-miterlimit:10;}
	.st14{fill:none;stroke:#000000;stroke-width:3;}
	.st15{fill:#2B7A7B;stroke:#000000;stroke-width:1.5;}
</style>
<g id="Layer_1">
	<path class="st8" d="M344.9,762.1c-1.1-24.6-18.4-39.1-36.6-43.6c-22.1-5.5-49.3-7.6-63.3,28c-16.6-47.3-1-93.8-16.4-133
		c-20.1-51.3-27.2-106-41.6-162.2l45.1,121.7c16.5,6.4,19.8,24.6,21.3,36.2c5.3,42.5,39.5,38,64.4,38.9c26.7,1,34.4-22.5,36.7-48
		c2.1-24.1,9.8-47.8,14.3-68.5c-9.4-22.7-22.5-6.1-38.7-9.2c16.2-54.3,32.2-108.1,48.2-161.9c0.2,0,0.4-0.1,0.5-0.1
		c0.2-0.5,0.3-0.9,0.5-1.4c1.3,0.2,2.6,0.4,3.9,0.6c1.3-0.2,2.6-0.4,3.9-0.6c0.2,0.5,0.3,0.9,0.5,1.4c0.2,0,0.4,0.1,0.5,0.1
		c16,53.8,32,107.5,48.2,161.9c-16.2,3.2-29.3-13.5-38.7,9.2c4.5,20.7,12.2,44.3,14.3,68.5c2.2,25.5,9.9,49,36.7,48
		c24.9-0.9,59.1,3.6,64.4-38.9c1.5-11.6,4.8-29.8,21.3-36.2L579,451.3c-14.4,56.2-21.5,110.9-41.6,162.2
		c-15.4,39.2,0.2,85.7-16.4,133c-14.1-35.6-41.3-33.5-63.3-28c-18.2,4.5-35.5,19-36.6,43.6c0,0-13.8,56.8-31.3,103.5L344.9,762.1z"
		/>
</g>
<g id="Layer_2">
</g>
<g id="Layer_3">
</g>
</svg>
