<?xml version="1.0" encoding="utf-8"?>
<!-- Generator: Adobe Illustrator 22.0.1, SVG Export Plug-In . SVG Version: 6.00 Build 0)  -->
<svg version="1.1" xmlns="http://www.w3.org/2000/svg" xmlns:xlink="http://www.w3.org/1999/xlink" x="0px" y="0px"
	 viewBox="0 0 750 1334" style="enable-background:new 0 0 750 1334;" xml:space="preserve">
<style type="text/css">
	.st0{fill:#2B7A7B;}
	.st1{fill:#17252A;stroke:#DEF2F1;stroke-width:2;}
	.st2{fill:#17252A;}
	.st3{fill:#2B7A7B;stroke:#DEF2F1;stroke-width:2;}
	.st4{fill:#363A3A;}
	.st5{fill:#981F32;}
	.st6{fill:#DEF2F1;}
	.st7{fill:#2B7A7B;stroke:#FFFFFF;}
	.st8{fill:#3AAFA9;}
	.st9{fill:#FEFFFF;}
	.st10{fill:#4D4D4D;}
</style>
<g id="Layer_1">
	<g>
		<path class="st8" d="M187.2,540.6h7l15.7,62.5h0.2l16.9-62.5h8.2l16.9,62.5h0.2l15.8-62.5h6.6L255.7,612h-7l-17.5-63.9H231
			L213.5,612h-7.2L187.2,540.6z"/>
		<path class="st6" d="M317.3,612h-5.6v-9.3h-0.2c-3.6,7.1-9.4,10.7-17.2,10.8c-11.9-0.3-17.7-6.8-17.5-19.6v-33.5h6V594
			c0.1,4.6,1.2,8.1,3.3,10.5c2,2.5,5.3,3.7,10.1,3.7c5.2-0.1,9.1-2.2,11.6-6.5c2.3-4.1,3.5-8.8,3.5-14.2v-27.1h6V612z"/>
		<path class="st6" d="M335.2,560.4h10.2v5.3h-10.2v34.8c-0.1,2,0.2,3.6,0.9,4.7c0.7,1.2,2,1.9,4.1,2.1c1.7,0,3.5-0.1,5.3-0.3v5.4
			c-1.8,0-3.6,0.1-5.4,0.2c-4,0-6.8-0.8-8.4-2.5c-1.7-1.7-2.5-4.8-2.4-9.1v-35.3h-8.7v-5.3h8.7v-15.5h6V560.4z"/>
		<path class="st8" d="M392.4,612h-44.6c0.3-5.2,1.5-9.6,3.9-13.1c2.2-3.6,5-6.6,8.4-9.2c3.3-2.7,6.9-5.2,10.5-7.6
			c3.7-2.5,6.9-5.1,9.8-7.9c1.9-1.9,3.3-3.9,4.3-6c0.9-2.1,1.4-4.4,1.4-7.2c-0.1-4.7-1.6-8.2-4.5-10.6c-2.9-2.5-6.5-3.7-10.8-3.7
			c-5.5,0.1-9.4,2.1-11.9,5.8c-2.5,3.7-3.6,8.3-3.5,13.7h-6c-0.2-7.3,1.6-13.2,5.3-17.8c3.6-4.6,9-7,16.3-7c6.1,0,11.1,1.6,15,4.9
			c3.9,3.3,5.9,8.3,6,14.8c-0.1,5.7-1.8,10.6-5.2,14.5c-3.3,4-7.3,7.4-11.9,10.4c-1.7,1-3.5,2.3-5.6,3.7c-2.1,1.4-4.2,2.9-6.3,4.6
			c-2.1,1.6-3.8,3.4-5.3,5.3c-1.5,2-2.6,4.2-3.1,6.6h37.7V612z"/>
		<path class="st8" d="M401.9,540.6h23.9c21,0.5,31.6,12.4,31.7,35.7c-0.1,23.3-10.7,35.2-31.7,35.7h-23.9V540.6z M408.5,606.2h14.1
			c19.2,0.8,28.7-9.2,28.5-29.9c0.2-20.7-9.3-30.7-28.5-29.9h-14.1V606.2z"/>
		<path class="st6" d="M485.3,558.9c7.7,0.1,13.6,2.8,17.6,8c4,5.2,6,11.7,6,19.3c0,7.6-2,13.9-6,19.1c-4.1,5.3-10,8.1-17.6,8.2
			c-7.7-0.1-13.5-2.9-17.5-8.2c-4.1-5.1-6.1-11.5-6.1-19.1c0-7.7,2-14.1,6.1-19.3C471.8,561.7,477.7,559.1,485.3,558.9z
			 M485.3,564.2c-5.8,0.1-10.2,2.4-13.1,6.8c-3,4.4-4.5,9.5-4.5,15.3c0,5.7,1.5,10.8,4.5,15.1c2.9,4.5,7.3,6.8,13.1,6.9
			c5.9-0.1,10.3-2.4,13.2-6.9c2.9-4.3,4.4-9.4,4.4-15.1c0-5.7-1.5-10.8-4.4-15.3C495.7,566.6,491.2,564.3,485.3,564.2z"/>
		<path class="st0" d="M518.4,612v-10.5h8.1V612H518.4z"/>
	</g>
</g>
<g id="Layer_2">
</g>
</svg>
